<?xml version="1.0" encoding="UTF-8" standalone="no"?>
<!-- Created with Inkscape (http://www.inkscape.org/) -->

<svg
   xmlns:dc="http://purl.org/dc/elements/1.1/"
   xmlns:cc="http://creativecommons.org/ns#"
   xmlns:rdf="http://www.w3.org/1999/02/22-rdf-syntax-ns#"
   xmlns:svg="http://www.w3.org/2000/svg"
   xmlns="http://www.w3.org/2000/svg"
   xmlns:sodipodi="http://sodipodi.sourceforge.net/DTD/sodipodi-0.dtd"
   xmlns:inkscape="http://www.inkscape.org/namespaces/inkscape"
   width="45.275406mm"
   height="92.945366mm"
   viewBox="0 0 45.275406 92.945366"
   version="1.1"
   id="svg3274"
   inkscape:version="0.92.2 (5c3e80d, 2017-08-06)"
   sodipodi:docname="p1_shoot.svg">
  <defs
     id="defs3268" />
  <sodipodi:namedview
     id="base"
     pagecolor="#ffffff"
     bordercolor="#666666"
     borderopacity="1.0"
     inkscape:pageopacity="0.0"
     inkscape:pageshadow="2"
     inkscape:zoom="0.98994949"
     inkscape:cx="28.915269"
     inkscape:cy="132.44855"
     inkscape:document-units="mm"
     inkscape:current-layer="layer1"
     showgrid="false"
     fit-margin-top="0"
     fit-margin-left="0"
     fit-margin-right="0"
     fit-margin-bottom="0"
     inkscape:window-width="1920"
     inkscape:window-height="1017"
     inkscape:window-x="-8"
     inkscape:window-y="-8"
     inkscape:window-maximized="1" />
  <metadata
     id="metadata3271">
    <rdf:RDF>
      <cc:Work
         rdf:about="">
        <dc:format>image/svg+xml</dc:format>
        <dc:type
           rdf:resource="http://purl.org/dc/dcmitype/StillImage" />
        <dc:title></dc:title>
      </cc:Work>
    </rdf:RDF>
  </metadata>
  <g
     inkscape:label="Capa 1"
     inkscape:groupmode="layer"
     id="layer1"
     transform="translate(-46.909914,-78.170172)">
    <g
       id="g1069"
       transform="translate(15.495251,-59.342264)">
      <path
         inkscape:connector-curvature="0"
         id="path4708-3"
         d="m 52.937027,154.65333 2.45904,-0.63242"
         style="fill:none;stroke:#c0a82a;stroke-width:0.465;stroke-linecap:butt;stroke-linejoin:miter;stroke-miterlimit:4;stroke-dasharray:none;stroke-opacity:1" />
      <path
         sodipodi:nodetypes="ccsc"
         inkscape:connector-curvature="0"
         id="path4537-4"
         d="m 36.827437,146.46938 c -2.330727,0.56639 -4.896031,1.00664 -5.261869,-2.02123 1.107216,0.0975 2.622413,0.66481 4.328267,1.07907 0.54465,0.13227 1.299673,0.12165 1.818933,0.24057"
         style="fill:#4f3428;fill-opacity:1;stroke:#000000;stroke-width:0.26458332px;stroke-linecap:butt;stroke-linejoin:miter;stroke-opacity:1" />
      <path
         sodipodi:nodetypes="ccc"
         inkscape:connector-curvature="0"
         id="path4539-6"
         d="m 58.075363,146.2021 c 0.390236,0.53477 5.453657,-1.69174 3.811878,-2.08802 -1.799397,-0.35427 -3.729582,0.86284 -5.465606,0.65145"
         style="fill:#4f3428;fill-opacity:1;stroke:#000000;stroke-width:0.26458332px;stroke-linecap:butt;stroke-linejoin:miter;stroke-opacity:1" />
      <path
         sodipodi:nodetypes="cccc"
         inkscape:connector-curvature="0"
         id="path4541-7"
         d="m 42.267478,142.72357 c 0.225323,-3.99385 0.02903,-7.11066 4.407973,-3.45813 1.19878,0.96424 2.319784,-0.32697 3.487974,-0.78853 1.444574,-0.65524 1.608348,1.22539 1.658158,2.23403"
         style="fill:#4f3428;fill-opacity:1;stroke:#000000;stroke-width:0.26458332px;stroke-linecap:butt;stroke-linejoin:miter;stroke-opacity:1" />
      <path
         sodipodi:nodetypes="ccsccc"
         inkscape:connector-curvature="0"
         id="path4543-2"
         d="m 52.513391,146.41836 c 0.3571,2.0169 1.260679,3.6469 3.870202,4.91299 -0.653717,0.82208 -1.85968,1.29045 -2.399974,1.91791 -4.216471,4.89678 -4.915442,4.4735 -11.986745,3.77536 -0.866621,-1.89201 -1.854135,-3.74948 -2.126114,-5.81138 0.0072,-2.07073 0.984556,-3.27908 1.748139,-4.67746"
         style="fill:#e9baa9;fill-opacity:1;stroke:#000000;stroke-width:0.26458332px;stroke-linecap:butt;stroke-linejoin:miter;stroke-opacity:1" />
      <circle
         r="0.71828681"
         cy="149.82695"
         cx="49.806709"
         id="path4545-9"
         style="opacity:1;fill:#000000;fill-opacity:1;fill-rule:evenodd;stroke:#000000;stroke-width:0.2;stroke-linecap:butt;stroke-linejoin:miter;stroke-miterlimit:4;stroke-dasharray:none;stroke-opacity:1;paint-order:markers stroke fill" />
      <path
         sodipodi:nodetypes="cc"
         inkscape:connector-curvature="0"
         id="path4547-5"
         d="m 50.40807,149.35923 c -0.748518,-0.34788 -1.387708,-0.74434 -1.737254,-1.26953"
         style="fill:none;stroke:#000000;stroke-width:0.26458332px;stroke-linecap:butt;stroke-linejoin:miter;stroke-opacity:1" />
      <path
         sodipodi:nodetypes="csccc"
         inkscape:connector-curvature="0"
         id="path4561-4"
         d="m 49.656373,190.23476 c 0.04905,0.64733 1.666922,2.91792 2.447584,3.89035 2.911005,3.62607 7.270139,11.64297 7.769593,14.74352 -1.92819,4.10336 -9.64857,13.68547 -12.555786,16.44525 l -3.674954,0.0668 9.220799,-16.63751 -8.151721,-15.63526 z"
         style="fill:#4e639c;fill-opacity:1;stroke:#000000;stroke-width:0.26458332px;stroke-linecap:butt;stroke-linejoin:miter;stroke-opacity:1" />
      <path
         transform="rotate(22.608829,-270.75669,163.00529)"
         inkscape:transform-center-y="0.1894925"
         inkscape:transform-center-x="-0.19749285"
         d="m 37.183873,104.86661 c -2.62e-4,0.0136 -1.327143,0.25969 -1.335362,0.27055 -0.0082,0.0109 0.116213,1.35463 0.103177,1.35859 -0.01304,0.004 -0.65709,-1.18194 -0.669965,-1.1864 -0.01288,-0.004 -1.25241,0.52913 -1.260206,0.51795 -0.0078,-0.0112 0.921039,-0.99017 0.921301,-1.00379 2.62e-4,-0.0136 -0.890245,-1.0276 -0.882026,-1.03847 0.0082,-0.0109 1.226323,0.56998 1.23936,0.56602 0.01304,-0.004 0.702208,-1.16422 0.715083,-1.15976 0.01288,0.004 -0.163129,1.34243 -0.155334,1.35361 0.0078,0.0112 1.324234,0.30807 1.323972,0.3217 z"
         inkscape:randomized="0"
         inkscape:rounded="0.01"
         inkscape:flatsided="false"
         sodipodi:arg2="0.64754693"
         sodipodi:arg1="0.019228399"
         sodipodi:r2="0.50389618"
         sodipodi:r1="1.7375731"
         sodipodi:cy="104.8332"
         sodipodi:cx="35.446621"
         sodipodi:sides="5"
         id="path4565-8"
         style="opacity:1;fill:#c7c5ca;fill-opacity:1;fill-rule:evenodd;stroke:#000000;stroke-width:0.69999999;stroke-linecap:butt;stroke-linejoin:miter;stroke-miterlimit:4;stroke-dasharray:none;stroke-opacity:1;paint-order:markers stroke fill"
         sodipodi:type="star" />
      <path
         sodipodi:nodetypes="ccc"
         inkscape:connector-curvature="0"
         id="path4567-7"
         d="m 47.317764,225.31388 c 1.878136,0.18298 4.123012,-0.10557 6.297049,-0.30304 -0.04083,0.57268 -0.543948,0.92365 -0.735198,1.17574 l -6.747857,-0.17111 -1.553505,-0.63481 z"
         style="fill:#7a501d;fill-opacity:1;stroke:#000000;stroke-width:0.26458332px;stroke-linecap:butt;stroke-linejoin:miter;stroke-opacity:1" />
      <path
         sodipodi:nodetypes="ccscc"
         inkscape:connector-curvature="0"
         id="path4535-3"
         d="m 36.827437,146.46938 c 7.082642,0.0969 14.165284,0.0138 21.247926,-0.26728 -1.150155,-1.14666 -2.935113,-2.15865 -3.897971,-3.44358 -2.447654,-3.26638 -6.990764,-3.26531 -9.331871,-1.36727 -2.964792,1.45903 -5.682578,3.11567 -8.018084,5.07813 z"
         style="fill:#7f4b36;fill-opacity:1;stroke:#000000;stroke-width:0.26458332px;stroke-linecap:butt;stroke-linejoin:miter;stroke-opacity:1" />
      <path
         sodipodi:nodetypes="cscscc"
         inkscape:connector-curvature="0"
         id="path4551-2"
         d="m 50.832069,160.14292 c 2.911791,8.78291 2.862977,10.12229 0.630684,15.36062 -1.585056,3.71952 -0.185108,10.59381 -0.630671,13.13987 -4.157668,7.68831 -11.143368,5.72614 -11.777885,0.46748 -0.357701,-2.96451 -1.039049,-6.11998 -1.265752,-7.75961 -0.743582,-6.03339 2.526067,-13.60664 2.877861,-22.91466"
         style="fill:#e4e3b8;fill-opacity:1;stroke:#000000;stroke-width:0.26458332px;stroke-linecap:butt;stroke-linejoin:miter;stroke-opacity:1" />
      <path
         sodipodi:nodetypes="cccscc"
         inkscape:connector-curvature="0"
         id="path4586-7"
         d="m 46.421389,160.13146 c -0.09496,8.07201 0.337262,16.10008 1.751009,24.04636 -3.373659,-0.0312 -6.652676,0.26884 -9.671804,1.4785 -1.528359,-6.31029 -0.119608,-12.18648 1.036466,-18.18157 0.570839,-2.96021 0.687069,-6.0566 1.129246,-9.03813 1.259545,1.00926 3.576109,1.30566 5.755083,1.69484 z"
         style="fill:#a13428;fill-opacity:1;stroke:#000000;stroke-width:0.26458332px;stroke-linecap:butt;stroke-linejoin:miter;stroke-opacity:1" />
      <path
         sodipodi:nodetypes="cccsc"
         inkscape:connector-curvature="0"
         id="path4588-3"
         d="m 52.438467,172.99412 c -0.346527,3.63015 -0.17053,7.17322 0.236231,10.67782 l -1.889879,0.18899 c -0.260927,-3.67998 -0.158014,-5.69903 0.62443,-8.28789 0.174095,-0.57603 0.766825,-2.04957 1.029218,-2.57892 z"
         style="fill:#a13428;fill-opacity:1;stroke:#000000;stroke-width:0.26458332px;stroke-linecap:butt;stroke-linejoin:miter;stroke-opacity:1" />
      <path
         sodipodi:nodetypes="ccccccccc"
         inkscape:connector-curvature="0"
         id="path4549-3"
         d="m 42.514709,156.23952 10.632874,-0.26537 c 0.385073,0.27567 0.560793,0.56531 0.0078,0.90352 0.579637,0.38208 0.749425,0.78368 0.01059,1.22854 1.040364,4.27058 -13.637179,1.02643 -12.499667,0.33041 -0.607178,-0.28433 -0.333754,-0.50995 -0.01436,-0.73251 -0.219117,-0.20466 -0.353312,-0.40932 -0.01204,-0.61398 -0.475757,-0.39235 -0.213803,-0.71763 -0.02057,-1.04917 z"
         style="fill:#dd3336;fill-opacity:1;stroke:#000000;stroke-width:0.26458332px;stroke-linecap:butt;stroke-linejoin:miter;stroke-opacity:1" />
      <path
         sodipodi:nodetypes="ccccccscc"
         inkscape:connector-curvature="0"
         id="path4563-1"
         d="m 36.359715,225.3807 c -1.396123,0.86104 -1.060897,2.71408 -0.434314,4.81085 l 0.80181,0.0334 0.801809,-0.86863 1.670434,0.86863 8.586033,0.10023 c 2.461858,-1.11396 6.088127,-4.26491 4.902193,-4.52813 -0.62247,-0.13816 -1.756279,0.0142 -4.70174,-0.0823 -0.531841,-0.24728 -1.069924,0.38773 -3.407687,-0.33409"
         style="fill:#7a501d;fill-opacity:1;stroke:#000000;stroke-width:0.26458332px;stroke-linecap:butt;stroke-linejoin:miter;stroke-opacity:1" />
      <path
         sodipodi:nodetypes="ccccc"
         inkscape:connector-curvature="0"
         id="path4609-1"
         d="m 38.59509,186.88474 c 4.094742,-0.58057 8.189483,-0.4724 12.284225,-0.37797 0.550854,0.72449 0.686961,1.43098 -0.04723,2.13664 -3.828678,-0.59398 -7.778363,-0.95179 -11.859017,-0.0105 z"
         style="fill:#724852;fill-opacity:1;stroke:#000000;stroke-width:0.26499999;stroke-linecap:butt;stroke-linejoin:miter;stroke-miterlimit:4;stroke-dasharray:none;stroke-opacity:1" />
      <ellipse
         ry="1.2076652"
         rx="0.58796763"
         cy="187.46149"
         cx="50.822525"
         id="path4611-2"
         style="opacity:1;fill:#b2a930;fill-opacity:1;fill-rule:evenodd;stroke:#000000;stroke-width:0.26500002;stroke-linecap:butt;stroke-linejoin:miter;stroke-miterlimit:4;stroke-dasharray:none;stroke-opacity:1;paint-order:markers stroke fill" />
      <path
         sodipodi:nodetypes="cccc"
         inkscape:connector-curvature="0"
         id="path4682-7"
         d="m 45.942,193.33396 c -1.242291,-2.05217 -3.020413,-3.8295 -4.84282,-5.07906 3.230869,-0.40777 6.304594,0.0148 9.557506,0.48874 -0.981136,1.76161 -1.892564,3.57635 -4.714686,4.59032 z"
         style="fill:#4e639c;fill-opacity:1;stroke:#000000;stroke-width:0.065;stroke-linecap:butt;stroke-linejoin:miter;stroke-miterlimit:4;stroke-dasharray:none;stroke-opacity:1" />
      <path
         sodipodi:nodetypes="cccccccc"
         inkscape:connector-curvature="0"
         id="path4559-6"
         d="m 37.963333,197.25058 c -0.228917,-22.97448 12.822786,4.73304 17.067136,11.372 1.022966,4.27054 -8.141425,12.2374 -11.387659,16.75812 l -8.218539,0.0668 c -0.213183,-1.27691 0.01926,-2.53777 0.267272,-3.4745 3.944997,-3.50489 7.42292,-7.52129 10.64689,-12.10681 -3.895582,-4.17711 -7.08957,-7.81707 -8.3751,-12.61563 z"
         style="fill:#4e639c;fill-opacity:1;stroke:#000000;stroke-width:0.26458332px;stroke-linecap:butt;stroke-linejoin:miter;stroke-opacity:1" />
      <text
         id="text4686-9"
         y="227.37544"
         x="42.718193"
         style="font-style:normal;font-weight:normal;font-size:3.58537388px;line-height:1.25;font-family:sans-serif;letter-spacing:0px;word-spacing:0px;fill:#000000;fill-opacity:1;stroke:none;stroke-width:0.26458332"
         xml:space="preserve"><tspan
           style="stroke-width:0.26458332"
           y="227.37544"
           x="42.718193"
           id="tspan4684-6"
           sodipodi:role="line">xxx</tspan></text>
      <path
         inkscape:connector-curvature="0"
         id="path4702-4"
         d="m 39.466722,146.5696 c -0.03341,0.50113 -0.567946,5.07812 -0.567946,5.07812 l 1.837478,-1.73725 0.400905,1.43657 1.302938,-3.10701 0.400904,0.96886 2.071338,-2.27179 1.069078,0.93544 1.069078,-0.86863 0.968852,0.60136 1.002262,-0.73499 1.536798,0.96885 1.102487,-0.83522 1.269532,0.83522 0.868624,-0.66817 0.768401,0.50113 -0.46772,-1.30294 z"
         style="fill:#821200;fill-opacity:1;stroke:#000000;stroke-width:0.26458332px;stroke-linecap:butt;stroke-linejoin:miter;stroke-opacity:1" />
      <g
         id="g5501">
        <g
           id="g5477">
          <path
             sodipodi:nodetypes="ccccc"
             inkscape:connector-curvature="0"
             id="path4624-2"
             d="m 57.384075,182.16616 c 0.883324,0.78437 1.851775,0.78739 2.878918,0.2517 -0.380649,-1.68823 0.11921,-2.79594 1.299052,-3.45535 -0.352419,-0.98565 -1.10635,-1.94315 -1.834514,-2.56312 -1.478094,1.69767 -2.431145,3.79674 -2.343456,5.76677 z"
             style="fill:#8e7654;fill-opacity:1;stroke:#000000;stroke-width:0.26458332px;stroke-linecap:butt;stroke-linejoin:miter;stroke-opacity:1" />
          <path
             transform="scale(0.26458333)"
             id="path4626-7"
             d="m 238.79492,659.70117 c -2.51823,4.74376 -7.59615,6.12349 -13.05273,7.00586 l 6.93359,9.6875 c 6.71135,6.52256 15.50936,7.85624 18.08008,-4.66015 0.92219,-0.39183 1.97961,-0.58829 2.11133,-2.11915 l 0.18164,-4.03711 35.28711,0.60352 c 0.93634,-1.66885 1.71387,-3.37853 0.0156,-5.74414 z m 3.98438,13.50391 a 4.2931483,3.2829957 0.77747831 0 1 4.24804,3.33984 4.2931483,3.2829957 0.77747831 0 1 -4.33789,3.22461 4.2931483,3.2829957 0.77747831 0 1 -4.24804,-3.33984 4.2931483,3.2829957 0.77747831 0 1 4.33789,-3.22461 z"
             style="fill:#636565;fill-opacity:1;stroke:#000000;stroke-width:0.99999994px;stroke-linecap:butt;stroke-linejoin:miter;stroke-opacity:1"
             inkscape:connector-curvature="0" />
          <path
             sodipodi:nodetypes="cccc"
             inkscape:connector-curvature="0"
             id="path4630-4"
             d="m 61.140534,175.97171 c -0.844975,-0.4227 -0.336012,-0.35697 0.207686,-0.53177 -0.860091,-1.95181 0.119389,-0.78715 1.120447,-0.085 l -1.24462,0.61794"
             style="fill:#858787;fill-opacity:1;stroke:#000000;stroke-width:0.26458332px;stroke-linecap:butt;stroke-linejoin:miter;stroke-opacity:1" />
          <path
             sodipodi:nodetypes="csccc"
             inkscape:connector-curvature="0"
             id="path4632-1"
             d="m 66.391576,174.7518 c 0,0 0.0015,2.50435 -0.04578,2.5037 -0.04725,-6.4e-4 -2.420707,-0.0683 -2.420707,-0.0683 -0.84738,-0.66316 -1.814815,-1.29837 0.0707,-2.59787 z"
             style="fill:#858787;fill-opacity:1;stroke:#000000;stroke-width:0.26458332px;stroke-linecap:butt;stroke-linejoin:miter;stroke-opacity:1" />
          <path
             inkscape:connector-curvature="0"
             id="path4634-1"
             d="m 64.384723,174.65369 -0.1283,2.49077"
             style="fill:none;stroke:#000000;stroke-width:0.26458332px;stroke-linecap:butt;stroke-linejoin:miter;stroke-opacity:1" />
          <path
             inkscape:connector-curvature="0"
             id="path4636-8"
             d="m 64.336901,176.43678 2.066226,0.0753"
             style="fill:none;stroke:#000000;stroke-width:0.26458332px;stroke-linecap:butt;stroke-linejoin:miter;stroke-opacity:1" />
          <path
             inkscape:connector-curvature="0"
             id="path4638-0"
             d="m 64.305366,175.2787 2.042764,0.0632"
             style="fill:none;stroke:#000000;stroke-width:0.26458332px;stroke-linecap:butt;stroke-linejoin:miter;stroke-opacity:1" />
          <path
             sodipodi:nodetypes="cc"
             inkscape:connector-curvature="0"
             id="path4642-0"
             d="m 74.325165,174.65864 c 0.494637,-0.84661 0.884425,-0.69091 1.216498,0.0165"
             style="fill:#636565;fill-opacity:1;stroke:#000000;stroke-width:0.26458332px;stroke-linecap:butt;stroke-linejoin:miter;stroke-opacity:1" />
          <path
             inkscape:connector-curvature="0"
             id="path4644-8"
             d="M 74.325165,174.65864 Z"
             style="fill:none;stroke:#000000;stroke-width:0.26458332px;stroke-linecap:butt;stroke-linejoin:miter;stroke-opacity:1" />
          <path
             inkscape:connector-curvature="0"
             id="path4646-4"
             d="m 67.447012,175.35564 7.933832,0.10767"
             style="fill:none;stroke:#000000;stroke-width:0.26458332px;stroke-linecap:butt;stroke-linejoin:miter;stroke-opacity:1" />
          <path
             sodipodi:nodetypes="cc"
             inkscape:connector-curvature="0"
             id="path4648-3"
             d="m 61.781741,176.73217 c 0.419449,0.28132 0.559679,0.65811 0.670764,1.04487"
             style="fill:none;stroke:#000000;stroke-width:0.26458332px;stroke-linecap:butt;stroke-linejoin:miter;stroke-opacity:1" />
          <path
             sodipodi:nodetypes="cc"
             inkscape:connector-curvature="0"
             id="path4650-5"
             d="m 61.030343,176.70527 c 0.630453,0.42934 0.932563,1.05325 1.162779,1.71978"
             style="fill:none;stroke:#000000;stroke-width:0.26458332px;stroke-linecap:butt;stroke-linejoin:miter;stroke-opacity:1" />
          <path
             sodipodi:nodetypes="ccc"
             inkscape:connector-curvature="0"
             id="path4654-3"
             d="m 63.486445,178.22812 c 0.978658,2.33474 0.293689,-0.33408 1.07136,-0.16088 z"
             style="fill:#858787;fill-opacity:1;stroke:#000000;stroke-width:0.065;stroke-linecap:butt;stroke-linejoin:miter;stroke-miterlimit:4;stroke-dasharray:none;stroke-opacity:1" />
          <path
             sodipodi:nodetypes="ccccc"
             inkscape:connector-curvature="0"
             id="path4656-0"
             d="m 58.321712,181.79722 c -0.387833,-0.41079 0.52555,-2.75585 0.704379,-2.66338 l -0.181987,1.10011 0.996117,-0.77166 c -0.627276,0.72795 -1.3167,1.43006 -1.518509,2.33493 z"
             style="fill:#000000;fill-opacity:1;stroke:#000000;stroke-width:0.26458332px;stroke-linecap:butt;stroke-linejoin:miter;stroke-opacity:1" />
          <path
             inkscape:connector-curvature="0"
             id="path4660-9"
             d="m 69.891459,176.19069 -0.05145,0.8051 -1.022743,0.0688 -0.03522,-0.88644 z"
             style="fill:#8e7654;fill-opacity:1;stroke:#000000;stroke-width:0;stroke-linecap:butt;stroke-linejoin:miter;stroke-miterlimit:4;stroke-dasharray:none;stroke-opacity:1" />
          <path
             sodipodi:nodetypes="cccc"
             inkscape:connector-curvature="0"
             id="path4658-9"
             d="m 66.890761,176.95186 c 1.353567,-0.22841 3.359915,0.80561 3.0007,-0.76117 l -2.939023,-0.09 z"
             style="fill:#636565;fill-opacity:1;stroke:#000000;stroke-width:0.26458332px;stroke-linecap:butt;stroke-linejoin:miter;stroke-opacity:1" />
          <path
             inkscape:connector-curvature="0"
             id="path4640-6"
             d="m 68.782039,176.17816 c -9.62e-4,0.0709 0.03522,0.88644 0.03522,0.88644"
             style="fill:none;stroke:#000000;stroke-width:0.26458332px;stroke-linecap:butt;stroke-linejoin:miter;stroke-opacity:1" />
        </g>
        <path
           style="fill:#e9baa9;fill-opacity:1;stroke:#000000;stroke-width:0.26458332px;stroke-linecap:butt;stroke-linejoin:miter;stroke-opacity:1"
           d="m 57.009303,181.43354 c 1.367128,0.13713 2.747707,0.18988 4.112541,0.33704 0.393295,0.0263 0.950456,-0.0643 1.164748,-0.25602 0.236588,-0.2117 0.203464,-0.62666 0.203464,-0.62666 -0.111467,-0.59234 -1.451206,-0.3714 -1.419649,-0.4069 0.863166,-0.33451 1.637635,0.002 1.742159,-0.28355 0.250491,-0.68466 -0.583651,-0.40284 -0.960174,-0.97386 l 2.783439,-0.27115 c -0.0065,-0.61314 -1.628463,-0.35167 -2.442709,-0.52749 -1.152348,-0.4292 -2.791117,-0.69942 -4.834655,-0.72502"
           id="path4557-4"
           inkscape:connector-curvature="0"
           sodipodi:nodetypes="ccsscscccc" />
        <g
           id="g5401"
           transform="rotate(-62.137741,42.73903,163.19213)">
          <path
             sodipodi:nodetypes="csccccc"
             inkscape:connector-curvature="0"
             id="path4553-2"
             d="m 38.80092,161.50473 c 3.400618,-0.0351 4.607438,1.95894 4.82374,3.11748 0.481372,2.57829 -5.176631,5.43886 -9.244301,7.05886 0.495642,3.06716 1.228821,8.77564 2.899864,11.67963 l -4.562259,2.23792 c -2.907721,-3.93792 -5.009869,-11.61651 -4.526103,-16.92389 3.140835,-3.03505 5.411425,-5.61651 10.609059,-7.17 z"
             style="fill:#e4e3b8;fill-opacity:1;stroke:#000000;stroke-width:0.26458332px;stroke-linecap:butt;stroke-linejoin:miter;stroke-opacity:1" />
          <path
             inkscape:connector-curvature="0"
             id="path4704-0"
             d="m 34.380359,171.68107 -1.361514,0.17891"
             style="fill:none;stroke:#000000;stroke-width:0.26458332px;stroke-linecap:butt;stroke-linejoin:miter;stroke-opacity:1" />
        </g>
      </g>
      <path
         sodipodi:nodetypes="cc"
         inkscape:connector-curvature="0"
         id="path4706-3"
         d="m 46.338433,209.86619 0.650413,0.81484"
         style="fill:none;stroke:#000000;stroke-width:0.26458332px;stroke-linecap:butt;stroke-linejoin:miter;stroke-opacity:1" />
      <circle
         r="0.46772167"
         cy="164.71053"
         cx="51.427036"
         id="path4710-44"
         style="opacity:1;fill:#2e1200;fill-opacity:1;fill-rule:evenodd;stroke:#000000;stroke-width:0.46499997;stroke-linecap:butt;stroke-linejoin:miter;stroke-miterlimit:4;stroke-dasharray:none;stroke-opacity:1;paint-order:markers stroke fill" />
      <circle
         r="0.46772167"
         cy="166.51459"
         cx="52.061798"
         id="path4710-4-5"
         style="opacity:1;fill:#2e1200;fill-opacity:1;fill-rule:evenodd;stroke:#000000;stroke-width:0.46499997;stroke-linecap:butt;stroke-linejoin:miter;stroke-miterlimit:4;stroke-dasharray:none;stroke-opacity:1;paint-order:markers stroke fill" />
      <circle
         r="0.46772167"
         cy="168.61934"
         cx="52.362476"
         id="path4710-4-8-0"
         style="opacity:1;fill:#2e1200;fill-opacity:1;fill-rule:evenodd;stroke:#000000;stroke-width:0.46499997;stroke-linecap:butt;stroke-linejoin:miter;stroke-miterlimit:4;stroke-dasharray:none;stroke-opacity:1;paint-order:markers stroke fill" />
    </g>
  </g>
</svg>
