<?xml version="1.0" encoding="UTF-8" standalone="no"?>
<!-- Created with Inkscape (http://www.inkscape.org/) -->

<svg
   xmlns:dc="http://purl.org/dc/elements/1.1/"
   xmlns:cc="http://creativecommons.org/ns#"
   xmlns:rdf="http://www.w3.org/1999/02/22-rdf-syntax-ns#"
   xmlns:svg="http://www.w3.org/2000/svg"
   xmlns="http://www.w3.org/2000/svg"
   xmlns:sodipodi="http://sodipodi.sourceforge.net/DTD/sodipodi-0.dtd"
   xmlns:inkscape="http://www.inkscape.org/namespaces/inkscape"
   width="34.357117mm"
   height="92.945374mm"
   viewBox="0 0 34.357117 92.945374"
   version="1.1"
   id="svg1839"
   inkscape:version="0.92.2 (5c3e80d, 2017-08-06)"
   sodipodi:docname="p1_stand.svg">
  <defs
     id="defs1833" />
  <sodipodi:namedview
     id="base"
     pagecolor="#ffffff"
     bordercolor="#666666"
     borderopacity="1.0"
     inkscape:pageopacity="0.0"
     inkscape:pageshadow="2"
     inkscape:zoom="0.7"
     inkscape:cx="209.08575"
     inkscape:cy="31.840834"
     inkscape:document-units="mm"
     inkscape:current-layer="layer1"
     showgrid="false"
     fit-margin-top="0"
     fit-margin-left="0"
     fit-margin-right="0"
     fit-margin-bottom="0"
     inkscape:window-width="1920"
     inkscape:window-height="1017"
     inkscape:window-x="-8"
     inkscape:window-y="-8"
     inkscape:window-maximized="1" />
  <metadata
     id="metadata1836">
    <rdf:RDF>
      <cc:Work
         rdf:about="">
        <dc:format>image/svg+xml</dc:format>
        <dc:type
           rdf:resource="http://purl.org/dc/dcmitype/StillImage" />
        <dc:title></dc:title>
      </cc:Work>
    </rdf:RDF>
  </metadata>
  <g
     inkscape:label="Capa 1"
     inkscape:groupmode="layer"
     id="layer1"
     transform="translate(-54.636922,-74.390409)">
    <g
       id="g1172"
       transform="translate(16.483486,58.651105)">
      <g
         id="g5187">
        <path
           style="fill:none;stroke:#c0a82a;stroke-width:0.465;stroke-linecap:butt;stroke-linejoin:miter;stroke-miterlimit:4;stroke-dasharray:none;stroke-opacity:1"
           d="m 63.100866,32.8802 2.459039,-0.632426"
           id="path4708"
           inkscape:connector-curvature="0" />
        <path
           style="fill:#4f3428;fill-opacity:1;stroke:#000000;stroke-width:0.26458332px;stroke-linecap:butt;stroke-linejoin:miter;stroke-opacity:1"
           d="m 46.991276,24.69624 c -2.330727,0.566394 -4.896031,1.006646 -5.261869,-2.021226 1.107216,0.09753 2.622413,0.664811 4.328267,1.079075 0.54465,0.132267 1.299673,0.121643 1.818933,0.240568"
           id="path4537"
           inkscape:connector-curvature="0"
           sodipodi:nodetypes="ccsc" />
        <path
           style="fill:#4f3428;fill-opacity:1;stroke:#000000;stroke-width:0.26458332px;stroke-linecap:butt;stroke-linejoin:miter;stroke-opacity:1"
           d="m 68.239202,24.42897 c 0.390236,0.534762 5.453656,-1.69174 3.811878,-2.088027 -1.799396,-0.354271 -3.729584,0.862838 -5.465606,0.651453"
           id="path4539"
           inkscape:connector-curvature="0"
           sodipodi:nodetypes="ccc" />
        <path
           style="fill:#4f3428;fill-opacity:1;stroke:#000000;stroke-width:0.26458332px;stroke-linecap:butt;stroke-linejoin:miter;stroke-opacity:1"
           d="m 52.431317,20.950437 c 0.225323,-3.993847 0.02903,-7.110661 4.407973,-3.458129 1.19878,0.964239 2.319784,-0.326973 3.487974,-0.788534 1.444574,-0.655239 1.608348,1.225388 1.658158,2.234035"
           id="path4541"
           inkscape:connector-curvature="0"
           sodipodi:nodetypes="cccc" />
        <path
           style="fill:#e9baa9;fill-opacity:1;stroke:#000000;stroke-width:0.26458332px;stroke-linecap:butt;stroke-linejoin:miter;stroke-opacity:1"
           d="m 62.67723,24.645226 c 0.3571,2.016899 1.260679,3.646901 3.870202,4.912993 -0.653717,0.822072 -1.85968,1.290442 -2.399974,1.91791 -4.216471,4.896775 -4.915442,4.473496 -11.986745,3.775359 -0.866621,-1.892009 -1.854135,-3.749478 -2.126114,-5.811385 0.0072,-2.070726 0.984556,-3.279077 1.748139,-4.677455"
           id="path4543"
           inkscape:connector-curvature="0"
           sodipodi:nodetypes="ccsccc" />
        <circle
           style="opacity:1;fill:#000000;fill-opacity:1;fill-rule:evenodd;stroke:#000000;stroke-width:0.2;stroke-linecap:butt;stroke-linejoin:miter;stroke-miterlimit:4;stroke-dasharray:none;stroke-opacity:1;paint-order:markers stroke fill"
           id="path4545"
           cx="59.970547"
           cy="28.053812"
           r="0.71828681" />
        <path
           style="fill:none;stroke:#000000;stroke-width:0.26458332px;stroke-linecap:butt;stroke-linejoin:miter;stroke-opacity:1"
           d="M 60.571909,27.586092 C 59.823391,27.238218 59.184201,26.841755 58.834655,26.316561"
           id="path4547"
           inkscape:connector-curvature="0"
           sodipodi:nodetypes="cc" />
        <path
           style="fill:#e4e3b8;fill-opacity:1;stroke:#000000;stroke-width:0.26458332px;stroke-linecap:butt;stroke-linejoin:miter;stroke-opacity:1"
           d="m 61.471736,39.770496 c 3.791272,1.768763 2.863208,4.010021 1.569224,5.557462"
           id="path4555"
           inkscape:connector-curvature="0"
           sodipodi:nodetypes="cc" />
        <path
           style="fill:#4e639c;fill-opacity:1;stroke:#000000;stroke-width:0.26458332px;stroke-linecap:butt;stroke-linejoin:miter;stroke-opacity:1"
           d="m 59.820212,68.461623 c 0.04905,0.647332 1.666922,2.917923 2.447584,3.89035 2.911005,3.626076 7.270139,11.642968 7.769593,14.743517 -1.928192,4.103368 -9.64857,13.68548 -12.555786,16.44526 l -3.674954,0.0668 9.220799,-16.63751 -8.151721,-15.635267 z"
           id="path4561"
           inkscape:connector-curvature="0"
           sodipodi:nodetypes="csccc" />
        <path
           sodipodi:type="star"
           style="opacity:1;fill:#c7c5ca;fill-opacity:1;fill-rule:evenodd;stroke:#000000;stroke-width:0.69999999;stroke-linecap:butt;stroke-linejoin:miter;stroke-miterlimit:4;stroke-dasharray:none;stroke-opacity:1;paint-order:markers stroke fill"
           id="path4565"
           sodipodi:sides="5"
           sodipodi:cx="35.446621"
           sodipodi:cy="104.8332"
           sodipodi:r1="1.7375731"
           sodipodi:r2="0.50389618"
           sodipodi:arg1="0.019228399"
           sodipodi:arg2="0.64754693"
           inkscape:flatsided="false"
           inkscape:rounded="0.01"
           inkscape:randomized="0"
           d="m 37.183873,104.86661 c -2.62e-4,0.0136 -1.327143,0.25969 -1.335362,0.27055 -0.0082,0.0109 0.116213,1.35463 0.103177,1.35859 -0.01304,0.004 -0.65709,-1.18194 -0.669965,-1.1864 -0.01288,-0.004 -1.25241,0.52913 -1.260206,0.51795 -0.0078,-0.0112 0.921039,-0.99017 0.921301,-1.00379 2.62e-4,-0.0136 -0.890245,-1.0276 -0.882026,-1.03847 0.0082,-0.0109 1.226323,0.56998 1.23936,0.56602 0.01304,-0.004 0.702208,-1.16422 0.715083,-1.15976 0.01288,0.004 -0.163129,1.34243 -0.155334,1.35361 0.0078,0.0112 1.324234,0.30807 1.323972,0.3217 z"
           inkscape:transform-center-x="-0.19749285"
           inkscape:transform-center-y="0.1894925"
           transform="rotate(22.608828,38.910585,127.54106)" />
        <path
           style="fill:#7a501d;fill-opacity:1;stroke:#000000;stroke-width:0.26458332px;stroke-linecap:butt;stroke-linejoin:miter;stroke-opacity:1"
           d="m 57.481603,103.54075 c 1.878136,0.18298 4.123012,-0.10557 6.297049,-0.30304 -0.04083,0.57268 -0.543948,0.92365 -0.735198,1.17574 l -6.747857,-0.17111 -1.553505,-0.63481 z"
           id="path4567"
           inkscape:connector-curvature="0"
           sodipodi:nodetypes="ccc" />
        <path
           style="fill:#7f4b36;fill-opacity:1;stroke:#000000;stroke-width:0.26458332px;stroke-linecap:butt;stroke-linejoin:miter;stroke-opacity:1"
           d="m 46.991276,24.69624 c 7.082642,0.09686 14.165284,0.01382 21.247926,-0.26727 -1.150156,-1.146664 -2.935113,-2.158659 -3.897971,-3.443586 -2.447654,-3.266374 -6.990764,-3.265309 -9.331871,-1.367265 -2.964792,1.459029 -5.682578,3.115663 -8.018084,5.078121 z"
           id="path4535"
           inkscape:connector-curvature="0"
           sodipodi:nodetypes="ccscc" />
        <path
           style="fill:#e4e3b8;fill-opacity:1;stroke:#000000;stroke-width:0.26458332px;stroke-linecap:butt;stroke-linejoin:miter;stroke-opacity:1"
           d="m 60.995908,38.36979 c 2.911791,8.782908 2.862977,10.122283 0.630684,15.360613 -1.585056,3.719518 -0.185108,10.593811 -0.630671,13.139875 -4.157668,7.688302 -11.143368,5.726136 -11.777885,0.467473 -0.357701,-2.964506 -1.039049,-6.119979 -1.265752,-7.759605 -0.743582,-6.033391 2.526067,-13.606637 2.877861,-22.914664"
           id="path4551"
           inkscape:connector-curvature="0"
           sodipodi:nodetypes="cscscc" />
        <path
           style="fill:#a13428;fill-opacity:1;stroke:#000000;stroke-width:0.26458332px;stroke-linecap:butt;stroke-linejoin:miter;stroke-opacity:1"
           d="m 56.585228,38.358327 c -0.09496,8.072006 0.337262,16.10008 1.751009,24.046361 -3.373659,-0.0312 -6.652676,0.268841 -9.671804,1.478494 -1.528359,-6.310287 -0.119608,-12.186475 1.036466,-18.181564 0.570839,-2.960218 0.687069,-6.056608 1.129246,-9.038135 1.259545,1.009266 3.576109,1.305659 5.755083,1.694844 z"
           id="path4586"
           inkscape:connector-curvature="0"
           sodipodi:nodetypes="cccscc" />
        <path
           style="fill:#a13428;fill-opacity:1;stroke:#000000;stroke-width:0.26458332px;stroke-linecap:butt;stroke-linejoin:miter;stroke-opacity:1"
           d="m 62.602306,51.220982 c -0.346527,3.630153 -0.17053,7.173219 0.236231,10.677825 l -1.889879,0.188989 c -0.260927,-3.679977 -0.158014,-5.699033 0.62443,-8.287894 0.174095,-0.576027 0.766825,-2.04957 1.029218,-2.57892 z"
           id="path4588"
           inkscape:connector-curvature="0"
           sodipodi:nodetypes="cccsc" />
        <path
           style="fill:#dd3336;fill-opacity:1;stroke:#000000;stroke-width:0.26458332px;stroke-linecap:butt;stroke-linejoin:miter;stroke-opacity:1"
           d="m 52.678548,34.466384 10.632874,-0.265372 c 0.385073,0.275677 0.560793,0.565311 0.0078,0.903526 0.579637,0.382078 0.749425,0.783673 0.01059,1.228535 1.040364,4.270585 -13.637178,1.026434 -12.499667,0.33041 -0.607177,-0.28433 -0.333754,-0.509952 -0.01436,-0.73251 -0.219117,-0.204659 -0.353312,-0.409317 -0.01204,-0.613976 -0.475757,-0.392349 -0.213803,-0.717634 -0.02057,-1.049167 z"
           id="path4549"
           inkscape:connector-curvature="0"
           sodipodi:nodetypes="ccccccccc" />
        <path
           style="fill:#7a501d;fill-opacity:1;stroke:#000000;stroke-width:0.26458332px;stroke-linecap:butt;stroke-linejoin:miter;stroke-opacity:1"
           d="m 46.523554,103.60757 c -1.396123,0.86104 -1.060897,2.71408 -0.434314,4.81085 l 0.80181,0.0334 0.801809,-0.86863 1.670434,0.86863 8.586033,0.10023 c 2.461858,-1.11396 6.088127,-4.26491 4.902193,-4.52813 -0.62247,-0.13816 -1.756279,0.0142 -4.70174,-0.0823 -0.531841,-0.24728 -1.069924,0.38773 -3.407687,-0.33409"
           id="path4563"
           inkscape:connector-curvature="0"
           sodipodi:nodetypes="ccccccscc" />
        <path
           style="fill:#724852;fill-opacity:1;stroke:#000000;stroke-width:0.26499999;stroke-linecap:butt;stroke-linejoin:miter;stroke-miterlimit:4;stroke-dasharray:none;stroke-opacity:1"
           d="m 48.758929,65.111606 c 4.094742,-0.580569 8.189483,-0.472399 12.284225,-0.377976 0.550854,0.724493 0.686961,1.430981 -0.04723,2.136648 -3.828678,-0.593979 -7.778363,-0.951792 -11.859017,-0.01053 z"
           id="path4609"
           inkscape:connector-curvature="0"
           sodipodi:nodetypes="ccccc" />
        <ellipse
           style="opacity:1;fill:#b2a930;fill-opacity:1;fill-rule:evenodd;stroke:#000000;stroke-width:0.26500002;stroke-linecap:butt;stroke-linejoin:miter;stroke-miterlimit:4;stroke-dasharray:none;stroke-opacity:1;paint-order:markers stroke fill"
           id="path4611"
           cx="60.986362"
           cy="65.688354"
           rx="0.58796763"
           ry="1.2076652" />
        <path
           style="fill:#4e639c;fill-opacity:1;stroke:#000000;stroke-width:0.065;stroke-linecap:butt;stroke-linejoin:miter;stroke-miterlimit:4;stroke-dasharray:none;stroke-opacity:1"
           d="m 56.105839,71.560824 c -1.242291,-2.052171 -3.020413,-3.829497 -4.84282,-5.079055 3.230869,-0.407779 6.304594,0.01476 9.557506,0.488735 -0.981136,1.761614 -1.892564,3.57635 -4.714686,4.59032 z"
           id="path4682"
           inkscape:connector-curvature="0"
           sodipodi:nodetypes="cccc" />
        <path
           style="fill:#4e639c;fill-opacity:1;stroke:#000000;stroke-width:0.26458332px;stroke-linecap:butt;stroke-linejoin:miter;stroke-opacity:1"
           d="m 48.127172,75.477449 c -0.228917,-22.974487 12.822786,4.733039 17.067135,11.371999 1.022968,4.270541 -8.141424,12.237396 -11.387658,16.758122 l -8.218539,0.0668 c -0.213183,-1.27691 0.01926,-2.53777 0.267272,-3.47451 3.944997,-3.504885 7.42292,-7.521284 10.64689,-12.106801 -3.895582,-4.177116 -7.08957,-7.817073 -8.3751,-12.61563 z"
           id="path4559"
           inkscape:connector-curvature="0"
           sodipodi:nodetypes="cccccccc" />
        <g
           id="g4680"
           transform="rotate(82.224622,56.878652,58.884011)">
          <path
             sodipodi:nodetypes="ccccc"
             inkscape:connector-curvature="0"
             id="path4624"
             d="m 60.121836,71.371837 c 0.893886,0.77231 1.862289,0.762186 2.882069,0.212612 -0.403522,-1.682909 0.08126,-2.797301 1.252046,-3.472657 -0.365761,-0.980779 -1.132615,-1.927962 -1.869124,-2.537993 -1.454922,1.71757 -2.379403,3.829375 -2.264991,5.798038 z"
             style="fill:#8e7654;fill-opacity:1;stroke:#000000;stroke-width:0.26458332px;stroke-linecap:butt;stroke-linejoin:miter;stroke-opacity:1" />
          <path
             sodipodi:nodetypes="ccccccccc"
             inkscape:connector-curvature="0"
             id="path4626"
             d="m 62.386826,65.573798 c 1.440421,-0.253026 2.779103,-0.636053 3.428293,-1.900097 l 13.112911,0.01669 c 0.457779,0.619751 0.258455,1.075227 0.0167,1.520095 l -9.337731,-0.03341 -0.03341,1.069078 c -0.02935,0.40547 -0.308676,0.460979 -0.551244,0.567946 -0.63517,3.320562 -2.967442,2.999176 -4.766405,1.297673 l -1.869125,-2.537992"
             style="fill:#636565;fill-opacity:1;stroke:#000000;stroke-width:0.26458332px;stroke-linecap:butt;stroke-linejoin:miter;stroke-opacity:1" />
          <ellipse
             ry="0.86862594"
             rx="1.1358955"
             cy="68.100357"
             cx="66.917603"
             id="path4628"
             style="opacity:1;fill:#4e639c;fill-opacity:1;fill-rule:evenodd;stroke:#000000;stroke-width:0.26499999;stroke-linecap:butt;stroke-linejoin:miter;stroke-miterlimit:4;stroke-dasharray:none;stroke-opacity:1;paint-order:markers stroke fill" />
          <path
             sodipodi:nodetypes="cccc"
             inkscape:connector-curvature="0"
             id="path4630"
             d="m 63.793896,65.12698 c -0.850633,-0.411195 -0.340825,-0.352376 0.200451,-0.53454 -0.886496,-1.939956 0.108697,-0.788695 1.11919,-0.100227 l -1.23612,0.634767"
             style="fill:#858787;fill-opacity:1;stroke:#000000;stroke-width:0.26458332px;stroke-linecap:butt;stroke-linejoin:miter;stroke-opacity:1" />
          <path
             sodipodi:nodetypes="csccc"
             inkscape:connector-curvature="0"
             id="path4632"
             d="m 69.027902,63.835935 c 0,0 0.03544,2.504094 -0.0118,2.504094 -0.04725,0 -2.421411,-0.03544 -2.421411,-0.03544 -0.8563,-0.651606 -1.832266,-1.273631 0.03544,-2.598587 z"
             style="fill:#858787;fill-opacity:1;stroke:#000000;stroke-width:0.26458332px;stroke-linecap:butt;stroke-linejoin:miter;stroke-opacity:1" />
          <path
             inkscape:connector-curvature="0"
             id="path4634"
             d="m 67.019902,63.765067 -0.09449,2.492279"
             style="fill:none;stroke:#000000;stroke-width:0.26458332px;stroke-linecap:butt;stroke-linejoin:miter;stroke-opacity:1" />
          <path
             inkscape:connector-curvature="0"
             id="path4636"
             d="m 66.99628,65.548641 2.067057,0.04725"
             style="fill:none;stroke:#000000;stroke-width:0.26458332px;stroke-linecap:butt;stroke-linejoin:miter;stroke-opacity:1" />
          <path
             inkscape:connector-curvature="0"
             id="path4638"
             d="m 66.949033,64.391089 2.043433,0.03544"
             style="fill:none;stroke:#000000;stroke-width:0.26458332px;stroke-linecap:butt;stroke-linejoin:miter;stroke-opacity:1" />
          <path
             sodipodi:nodetypes="cc"
             inkscape:connector-curvature="0"
             id="path4642"
             d="m 76.959496,63.635135 c 0.483104,-0.853245 0.874969,-0.70285 1.21661,0"
             style="fill:#636565;fill-opacity:1;stroke:#000000;stroke-width:0.26458332px;stroke-linecap:butt;stroke-linejoin:miter;stroke-opacity:1" />
          <path
             inkscape:connector-curvature="0"
             id="path4644"
             d="M 76.959496,63.635135 Z"
             style="fill:none;stroke:#000000;stroke-width:0.26458332px;stroke-linecap:butt;stroke-linejoin:miter;stroke-opacity:1" />
          <path
             inkscape:connector-curvature="0"
             id="path4646"
             d="m 70.091434,64.425398 h 7.934563"
             style="fill:none;stroke:#000000;stroke-width:0.26458332px;stroke-linecap:butt;stroke-linejoin:miter;stroke-opacity:1" />
          <path
             sodipodi:nodetypes="cc"
             inkscape:connector-curvature="0"
             id="path4648"
             d="m 64.445363,65.878675 c 0.423228,0.275604 0.568557,0.650457 0.68488,1.035669"
             style="fill:none;stroke:#000000;stroke-width:0.26458332px;stroke-linecap:butt;stroke-linejoin:miter;stroke-opacity:1" />
          <path
             sodipodi:nodetypes="cc"
             inkscape:connector-curvature="0"
             id="path4650"
             d="m 63.693669,65.861972 c 0.636221,0.42074 0.946769,1.040502 1.186008,1.703842"
             style="fill:none;stroke:#000000;stroke-width:0.26458332px;stroke-linecap:butt;stroke-linejoin:miter;stroke-opacity:1" />
          <path
             sodipodi:nodetypes="ccc"
             inkscape:connector-curvature="0"
             id="path4654"
             d="m 66.170209,67.351349 c 1.010248,2.321253 0.289129,-0.338027 1.069078,-0.175397 z"
             style="fill:#858787;fill-opacity:1;stroke:#000000;stroke-width:0.065;stroke-linecap:butt;stroke-linejoin:miter;stroke-miterlimit:4;stroke-dasharray:none;stroke-opacity:1" />
          <path
             sodipodi:nodetypes="ccccc"
             inkscape:connector-curvature="0"
             id="path4656"
             d="m 61.054381,70.990205 c -0.393372,-0.405493 0.488107,-2.762729 0.668174,-2.672696 l -0.167042,1.102487 0.985554,-0.785105 c -0.61734,0.736393 -1.297174,1.447789 -1.486686,2.355314 z"
             style="fill:#000000;fill-opacity:1;stroke:#000000;stroke-width:0.26458332px;stroke-linecap:butt;stroke-linejoin:miter;stroke-opacity:1" />
          <path
             inkscape:connector-curvature="0"
             id="path4660"
             d="m 72.546987,65.227199 -0.04052,0.805723 -1.021715,0.08268 -0.04725,-0.885881 z"
             style="fill:#8e7654;fill-opacity:1;stroke:#000000;stroke-width:0;stroke-linecap:butt;stroke-linejoin:miter;stroke-miterlimit:4;stroke-dasharray:none;stroke-opacity:1" />
          <path
             sodipodi:nodetypes="cccc"
             inkscape:connector-curvature="0"
             id="path4658"
             d="m 69.556894,66.029014 c 1.350343,-0.246751 3.370537,0.759946 2.990095,-0.801813 l -2.939974,-0.05013 z"
             style="fill:#636565;fill-opacity:1;stroke:#000000;stroke-width:0.26458332px;stroke-linecap:butt;stroke-linejoin:miter;stroke-opacity:1" />
          <path
             inkscape:connector-curvature="0"
             id="path4640"
             d="m 71.437499,65.229723 c 0,0.07087 0.04725,0.885881 0.04725,0.885881"
             style="fill:none;stroke:#000000;stroke-width:0.26458332px;stroke-linecap:butt;stroke-linejoin:miter;stroke-opacity:1" />
        </g>
        <path
           style="fill:#e9baa9;fill-opacity:1;stroke:#000000;stroke-width:0.26458332px;stroke-linecap:butt;stroke-linejoin:miter;stroke-opacity:1"
           d="m 43.260987,62.777198 1.291836,5.244073 c 0.56709,0.219968 0.393646,-1.893137 0.568084,-1.560701 0.38536,0.734394 0.860541,2.267605 1.103498,2.319315 0.589533,0.125474 -0.384346,-2.778575 -0.337634,-2.770168 0.735991,0.561486 1.940602,3.493759 2.238853,3.433708 0.714699,-0.143902 -0.741525,-3.070386 -0.451147,-3.689659 l 1.684649,2.232268 c 0.519496,-0.325725 -0.550391,-1.572456 -0.825613,-2.358691 0.46167,-0.170548 1.36232,0.01579 1.548279,-0.413323 -2.037335,-0.996845 -2.348228,-2.569928 -3.454403,-4.088466"
           id="path4557"
           inkscape:connector-curvature="0"
           sodipodi:nodetypes="ccsscsccccc" />
        <path
           style="fill:#e4e3b8;fill-opacity:1;stroke:#000000;stroke-width:0.26458332px;stroke-linecap:butt;stroke-linejoin:miter;stroke-opacity:1"
           d="m 48.964759,39.731596 c 3.400618,-0.03506 4.607438,1.958938 4.82374,3.117479 0.481372,2.578287 -5.176631,5.43886 -9.244301,7.058855 0.495642,3.067166 1.228821,8.775648 2.899864,11.679636 l -4.562259,2.237918 C 39.974082,59.887564 37.871934,52.208978 38.3557,46.901598 c 3.140835,-3.035049 5.411425,-5.616509 10.609059,-7.170002 z"
           id="path4553"
           inkscape:connector-curvature="0"
           sodipodi:nodetypes="csccccc" />
        <text
           xml:space="preserve"
           style="font-style:normal;font-weight:normal;font-size:3.58537388px;line-height:1.25;font-family:sans-serif;letter-spacing:0px;word-spacing:0px;fill:#000000;fill-opacity:1;stroke:none;stroke-width:0.26458332"
           x="52.88203"
           y="105.6023"
           id="text4686"><tspan
             sodipodi:role="line"
             id="tspan4684"
             x="52.88203"
             y="105.6023"
             style="stroke-width:0.26458332">xxx</tspan></text>
        <path
           style="fill:#821200;fill-opacity:1;stroke:#000000;stroke-width:0.26458332px;stroke-linecap:butt;stroke-linejoin:miter;stroke-opacity:1"
           d="m 49.630561,24.796466 c -0.03341,0.50113 -0.567946,5.07812 -0.567946,5.07812 l 1.837478,-1.737252 0.400905,1.436574 1.302938,-3.107008 0.400904,0.968852 2.071338,-2.271791 1.069078,0.935444 1.069078,-0.868626 0.968852,0.601356 1.002262,-0.734991 1.536798,0.968852 1.102487,-0.835217 1.269532,0.835217 0.868624,-0.668174 0.768401,0.50113 -0.46772,-1.302938 z"
           id="path4702"
           inkscape:connector-curvature="0" />
        <path
           style="fill:none;stroke:#000000;stroke-width:0.26458332px;stroke-linecap:butt;stroke-linejoin:miter;stroke-opacity:1"
           d="m 44.544198,49.90793 -1.361514,0.178914"
           id="path4704"
           inkscape:connector-curvature="0" />
        <path
           style="fill:none;stroke:#000000;stroke-width:0.26458332px;stroke-linecap:butt;stroke-linejoin:miter;stroke-opacity:1"
           d="m 56.502272,88.093057 0.650413,0.814836"
           id="path4706"
           inkscape:connector-curvature="0"
           sodipodi:nodetypes="cc" />
        <circle
           style="opacity:1;fill:#2e1200;fill-opacity:1;fill-rule:evenodd;stroke:#000000;stroke-width:0.46499997;stroke-linecap:butt;stroke-linejoin:miter;stroke-miterlimit:4;stroke-dasharray:none;stroke-opacity:1;paint-order:markers stroke fill"
           id="path4710"
           cx="61.590874"
           cy="42.937386"
           r="0.46772167" />
        <circle
           style="opacity:1;fill:#2e1200;fill-opacity:1;fill-rule:evenodd;stroke:#000000;stroke-width:0.46499997;stroke-linecap:butt;stroke-linejoin:miter;stroke-miterlimit:4;stroke-dasharray:none;stroke-opacity:1;paint-order:markers stroke fill"
           id="path4710-4"
           cx="62.225636"
           cy="44.741455"
           r="0.46772167" />
        <circle
           style="opacity:1;fill:#2e1200;fill-opacity:1;fill-rule:evenodd;stroke:#000000;stroke-width:0.46499997;stroke-linecap:butt;stroke-linejoin:miter;stroke-miterlimit:4;stroke-dasharray:none;stroke-opacity:1;paint-order:markers stroke fill"
           id="path4710-4-8"
           cx="62.526314"
           cy="46.846199"
           r="0.46772167" />
      </g>
    </g>
  </g>
</svg>
