<?xml version="1.0" encoding="UTF-8" standalone="no"?>
<!-- Created with Inkscape (http://www.inkscape.org/) -->

<svg
   xmlns:dc="http://purl.org/dc/elements/1.1/"
   xmlns:cc="http://creativecommons.org/ns#"
   xmlns:rdf="http://www.w3.org/1999/02/22-rdf-syntax-ns#"
   xmlns:svg="http://www.w3.org/2000/svg"
   xmlns="http://www.w3.org/2000/svg"
   xmlns:sodipodi="http://sodipodi.sourceforge.net/DTD/sodipodi-0.dtd"
   xmlns:inkscape="http://www.inkscape.org/namespaces/inkscape"
   width="46.226364mm"
   height="92.340569mm"
   viewBox="0 0 46.226364 92.340569"
   version="1.1"
   id="svg2761"
   inkscape:version="0.92.2 (5c3e80d, 2017-08-06)"
   sodipodi:docname="p2_death.svg">
  <defs
     id="defs2755" />
  <sodipodi:namedview
     id="base"
     pagecolor="#ffffff"
     bordercolor="#666666"
     borderopacity="1.0"
     inkscape:pageopacity="0.0"
     inkscape:pageshadow="2"
     inkscape:zoom="0.35"
     inkscape:cx="-365.50024"
     inkscape:cy="28.78758"
     inkscape:document-units="mm"
     inkscape:current-layer="layer1"
     showgrid="false"
     fit-margin-top="0"
     fit-margin-left="0"
     fit-margin-right="0"
     fit-margin-bottom="0"
     inkscape:window-width="1920"
     inkscape:window-height="1017"
     inkscape:window-x="-8"
     inkscape:window-y="-8"
     inkscape:window-maximized="1" />
  <metadata
     id="metadata2758">
    <rdf:RDF>
      <cc:Work
         rdf:about="">
        <dc:format>image/svg+xml</dc:format>
        <dc:type
           rdf:resource="http://purl.org/dc/dcmitype/StillImage" />
        <dc:title></dc:title>
      </cc:Work>
    </rdf:RDF>
  </metadata>
  <g
     inkscape:label="Capa 1"
     inkscape:groupmode="layer"
     id="layer1"
     transform="translate(-63.06539,-64.109477)">
    <g
       transform="translate(-34.84898,-67.513378)"
       id="g1986">
      <path
         sodipodi:nodetypes="ccsc"
         inkscape:connector-curvature="0"
         id="path4537-7-7-7"
         d="m 126.27965,139.4998 c 2.38805,0.22434 4.99003,0.29002 4.91537,-2.75895 -1.08157,0.25619 -2.49912,1.03606 -4.1274,1.69201 -0.51989,0.20941 -1.26853,0.30784 -1.76521,0.50039"
         style="fill:#af4b36;fill-opacity:1;stroke:#000000;stroke-width:0.26458332px;stroke-linecap:butt;stroke-linejoin:miter;stroke-opacity:1" />
      <path
         sodipodi:nodetypes="ccc"
         inkscape:connector-curvature="0"
         id="path4539-8-8-8"
         d="m 105.21531,142.29968 c -0.30902,0.58546 -5.64062,-0.88754 -4.07315,-1.51646 1.7295,-0.61003 3.81503,0.31595 5.50241,-0.14359"
         style="fill:#af4b36;fill-opacity:1;stroke:#000000;stroke-width:0.26458332px;stroke-linecap:butt;stroke-linejoin:miter;stroke-opacity:1" />
      <path
         sodipodi:nodetypes="cccc"
         inkscape:connector-curvature="0"
         id="path4541-79-5-1"
         d="m 120.35627,136.57771 c -0.79895,-3.9196 -1.05419,-7.03214 -4.86061,-2.78626 -1.04719,1.12705 -2.3427,0.011 -3.56525,-0.27726 -1.52396,-0.44005 -1.4148,1.44454 -1.31863,2.44982"
         style="fill:#af4b36;fill-opacity:1;stroke:#000000;stroke-width:0.26458332px;stroke-linecap:butt;stroke-linejoin:miter;stroke-opacity:1" />
      <path
         sodipodi:nodetypes="ccsccc"
         inkscape:connector-curvature="0"
         id="path4543-3-4-4"
         d="m 111.58023,142.42763 c 0.25786,2.03197 -0.121,3.85675 -2.23692,5.84057 0.86833,0.5909 2.15897,0.68008 2.86121,1.11882 5.48026,3.424 6.02203,2.81227 12.56715,0.046 0.26576,-2.064 0.65723,-4.13092 0.30473,-6.1806 -0.62152,-1.97527 -1.91378,-2.83887 -3.05812,-3.94746"
         style="fill:#e9baa9;fill-opacity:1;stroke:#000000;stroke-width:0.26458332px;stroke-linecap:butt;stroke-linejoin:miter;stroke-opacity:1" />
      <path
         sodipodi:nodetypes="csccc"
         inkscape:connector-curvature="0"
         id="path4561-2-0-2"
         d="m 126.72336,183.74038 c -0.049,0.64733 -1.66692,2.91792 -2.44758,3.89035 -2.911,3.62608 -7.27014,11.64297 -7.76959,14.74352 1.92819,4.10337 9.64857,13.68547 12.55578,16.44525 l 3.67496,0.0668 -9.2208,-16.63751 8.15172,-15.63526 z"
         style="fill:#7c6b57;fill-opacity:1;stroke:#000000;stroke-width:0.26458332px;stroke-linecap:butt;stroke-linejoin:miter;stroke-opacity:1" />
      <path
         transform="matrix(-0.92315099,0.38443757,0.38443757,0.92315099,134.52176,110.12147)"
         inkscape:transform-center-y="0.1894927"
         inkscape:transform-center-x="0.1974969"
         d="m 37.183873,104.86661 c -2.62e-4,0.0136 -1.327143,0.25969 -1.335362,0.27055 -0.0082,0.0109 0.116213,1.35463 0.103177,1.35859 -0.01304,0.004 -0.65709,-1.18194 -0.669965,-1.1864 -0.01288,-0.004 -1.25241,0.52913 -1.260206,0.51795 -0.0078,-0.0112 0.921039,-0.99017 0.921301,-1.00379 2.62e-4,-0.0136 -0.890245,-1.0276 -0.882026,-1.03847 0.0082,-0.0109 1.226323,0.56998 1.23936,0.56602 0.01304,-0.004 0.702208,-1.16422 0.715083,-1.15976 0.01288,0.004 -0.163129,1.34243 -0.155334,1.35361 0.0078,0.0112 1.324234,0.30807 1.323972,0.3217 z"
         inkscape:randomized="0"
         inkscape:rounded="0.01"
         inkscape:flatsided="false"
         sodipodi:arg2="0.64754693"
         sodipodi:arg1="0.019228399"
         sodipodi:r2="0.50389618"
         sodipodi:r1="1.7375731"
         sodipodi:cy="104.8332"
         sodipodi:cx="35.446621"
         sodipodi:sides="5"
         id="path4565-4-0-7"
         style="opacity:1;fill:#c7c5ca;fill-opacity:1;fill-rule:evenodd;stroke:#000000;stroke-width:0.69999999;stroke-linecap:butt;stroke-linejoin:miter;stroke-miterlimit:4;stroke-dasharray:none;stroke-opacity:1;paint-order:markers stroke fill"
         sodipodi:type="star" />
      <path
         sodipodi:nodetypes="ccc"
         inkscape:connector-curvature="0"
         id="path4567-75-5-5"
         d="m 129.06197,218.8195 c -1.87813,0.18298 -4.12301,-0.10557 -6.29705,-0.30304 0.0408,0.57268 0.54395,0.92365 0.7352,1.17574 l 6.74786,-0.17111 1.5535,-0.63481 z"
         style="fill:#7a501d;fill-opacity:1;stroke:#000000;stroke-width:0.26458332px;stroke-linecap:butt;stroke-linejoin:miter;stroke-opacity:1" />
      <path
         sodipodi:nodetypes="cscscc"
         inkscape:connector-curvature="0"
         id="path4551-3-2-5"
         d="m 117.2608,155.03405 c -0.17267,9.25139 0.27162,10.51586 3.95859,14.85515 2.61797,3.08115 3.32226,10.0611 4.5037,12.36005 6.25296,6.1071 12.34102,2.15924 11.38554,-3.05067 -0.53865,-2.93703 -0.82494,-6.1525 -1.0953,-7.7855 -1.08137,-5.98208 -6.45219,-12.24298 -9.55185,-21.02679"
         style="fill:#c7cbc5;fill-opacity:1;stroke:#000000;stroke-width:0.26458332px;stroke-linecap:butt;stroke-linejoin:miter;stroke-opacity:1" />
      <path
         sodipodi:nodetypes="cccscc"
         inkscape:connector-curvature="0"
         id="path4586-2-7-3"
         d="m 121.46917,153.7135 c 2.48743,7.67977 4.45835,15.47415 5.46775,23.48184 3.21225,-1.03149 6.43249,-1.71858 9.67462,-1.45991 -0.4142,-6.47952 -3.50417,-11.67241 -6.38815,-17.05389 -1.42404,-2.65723 -2.4544,-5.57947 -3.76191,-8.29525 -0.90307,1.33774 -3.02717,2.30859 -4.99231,3.32721 z"
         style="fill:#3e3428;fill-opacity:1;stroke:#000000;stroke-width:0.26458332px;stroke-linecap:butt;stroke-linejoin:miter;stroke-opacity:1" />
      <path
         sodipodi:nodetypes="cccsc"
         inkscape:connector-curvature="0"
         id="path4588-8-3-4"
         d="m 119.54259,167.78266 c 1.40876,3.36356 2.2927,6.79909 2.94486,10.26643 l 1.86077,-0.38067 c -0.84349,-3.5915 -1.54126,-5.48895 -3.0571,-7.72874 -0.33728,-0.49836 -1.3408,-1.72945 -1.74853,-2.15702 z"
         style="fill:#3e3428;fill-opacity:1;stroke:#000000;stroke-width:0.26458332px;stroke-linecap:butt;stroke-linejoin:miter;stroke-opacity:1" />
      <path
         sodipodi:nodetypes="ccccsccccc"
         inkscape:connector-curvature="0"
         id="path4549-9-6-1"
         d="m 123.07638,145.72493 -10.29585,2.69886 c -2.97602,0.26583 -2.61255,0.73956 0.47748,1.56256 -1.46176,0.7163 -0.37794,1.56712 0.64951,2.12455 -1.99478,2.1483 1.33679,3.89084 4.88757,2.96737 4.42671,-1.15125 9.40142,-5.40527 7.22581,-6.1082 0.42713,-0.67126 0.0449,-0.97967 -0.37955,-1.26916 0.0993,-0.41846 0.1176,-0.81169 -0.3182,-1.06375 0.24364,-0.81877 -0.18116,-1.30268 -0.54365,-1.8178 z"
         style="fill:#a73336;fill-opacity:1;stroke:#000000;stroke-width:0.26458332px;stroke-linecap:butt;stroke-linejoin:miter;stroke-opacity:1" />
      <path
         sodipodi:nodetypes="ccccccscc"
         inkscape:connector-curvature="0"
         id="path4563-3-8-1"
         d="m 140.02002,218.88632 c 1.39613,0.86104 1.0609,2.71408 0.43432,4.81085 l -0.80181,0.0334 -0.80181,-0.86863 -1.67044,0.86863 -8.58603,0.10023 c -2.46186,-1.11396 -6.08813,-4.26491 -4.90219,-4.52813 0.62247,-0.13816 1.75628,0.0142 4.70174,-0.0823 0.53184,-0.24728 1.06992,0.38773 3.40768,-0.33409"
         style="fill:#7a501d;fill-opacity:1;stroke:#000000;stroke-width:0.26458332px;stroke-linecap:butt;stroke-linejoin:miter;stroke-opacity:1" />
      <path
         sodipodi:nodetypes="ccccc"
         inkscape:connector-curvature="0"
         id="path4609-7-4-1"
         d="m 136.88605,176.93651 c -4.08246,0.66142 -7.96043,1.98051 -11.84247,3.28648 -0.3109,0.85537 -0.2311,1.57042 0.67947,2.02627 3.47966,-1.70399 7.14499,-3.21841 11.3211,-3.53119 z"
         style="fill:#c7a967;fill-opacity:1;stroke:#000000;stroke-width:0.26499999;stroke-linecap:butt;stroke-linejoin:miter;stroke-miterlimit:4;stroke-dasharray:none;stroke-opacity:1" />
      <ellipse
         transform="matrix(-0.954903,0.29691795,0.29691795,0.954903,0,0)"
         ry="1.2076652"
         rx="0.58796763"
         cy="210.1779"
         cx="-65.949852"
         id="path4611-8-8-5"
         style="opacity:1;fill:#724852;fill-opacity:1;fill-rule:evenodd;stroke:#000000;stroke-width:0.26500002;stroke-linecap:butt;stroke-linejoin:miter;stroke-miterlimit:4;stroke-dasharray:none;stroke-opacity:1;paint-order:markers stroke fill" />
      <path
         sodipodi:nodetypes="cccc"
         inkscape:connector-curvature="0"
         id="path4682-0-6-5"
         d="m 130.43774,186.83958 c 1.24229,-2.05217 3.02041,-3.8295 4.84282,-5.07905 -3.23087,-0.40778 -6.3046,0.0148 -9.55751,0.48873 0.98114,1.76161 1.89257,3.57635 4.71469,4.59032 z"
         style="fill:#7c6b57;fill-opacity:1;stroke:#000000;stroke-width:0.065;stroke-linecap:butt;stroke-linejoin:miter;stroke-miterlimit:4;stroke-dasharray:none;stroke-opacity:1" />
      <path
         sodipodi:nodetypes="cccccccc"
         inkscape:connector-curvature="0"
         id="path4559-5-4-2"
         d="m 138.4164,190.75621 c 0.22892,-22.97449 -12.82278,4.73303 -17.06713,11.37199 -1.02297,4.27055 8.14142,12.2374 11.38766,16.75812 l 8.21854,0.0668 c 0.21318,-1.27691 -0.0193,-2.53777 -0.26727,-3.47449 -3.945,-3.5049 -7.42293,-7.5213 -10.6469,-12.10681 3.89559,-4.17712 7.08957,-7.81708 8.3751,-12.61563 z"
         style="fill:#7c6b57;fill-opacity:1;stroke:#000000;stroke-width:0.26458332px;stroke-linecap:butt;stroke-linejoin:miter;stroke-opacity:1" />
      <text
         transform="scale(-1,1)"
         id="text4686-8-8-5"
         y="220.88107"
         x="-133.66156"
         style="font-style:normal;font-weight:normal;font-size:3.58537388px;line-height:1.25;font-family:sans-serif;letter-spacing:0px;word-spacing:0px;fill:#000000;fill-opacity:1;stroke:none;stroke-width:0.26458332"
         xml:space="preserve"><tspan
           style="stroke-width:0.26458332"
           y="220.88107"
           x="-133.66156"
           id="tspan4684-5-9-9"
           sodipodi:role="line">xxx</tspan></text>
      <path
         sodipodi:nodetypes="cccccccccccccccccc"
         inkscape:connector-curvature="0"
         id="path4702-6-7-8"
         d="m 124.08344,138.69826 c 0.18069,0.46861 4.70527,7.14361 4.70527,7.14361 l -4.92559,-3.57646 1.21584,4.1352 -3.33882,-5.2244 1.0341,5.8011 -3.78171,-6.31122 0.63008,5.40191 -2.65198,-4.70325 0.25822,3.41836 -2.18012,-2.96072 -0.58492,2.78838 -1.89566,-1.87711 -0.3407,2.72992 -1.65143,-1.93556 -3.06205,1.96672 3.38173,-4.14275 z"
         style="fill:#de8200;fill-opacity:1;stroke:#000000;stroke-width:0.26458332px;stroke-linecap:butt;stroke-linejoin:miter;stroke-opacity:1" />
      <path
         sodipodi:nodetypes="cc"
         inkscape:connector-curvature="0"
         id="path4706-2-0-7"
         d="m 130.0413,203.37181 -0.65041,0.81484"
         style="fill:none;stroke:#000000;stroke-width:0.26458332px;stroke-linecap:butt;stroke-linejoin:miter;stroke-opacity:1" />
      <circle
         transform="matrix(-0.954903,0.29691795,0.29691795,0.954903,0,0)"
         r="0.46772167"
         cy="187.42693"
         cx="-65.345345"
         id="path4710-7-3-8"
         style="opacity:1;fill:#c5a058;fill-opacity:1;fill-rule:evenodd;stroke:#000000;stroke-width:0.46499997;stroke-linecap:butt;stroke-linejoin:miter;stroke-miterlimit:4;stroke-dasharray:none;stroke-opacity:1;paint-order:markers stroke fill" />
      <circle
         transform="matrix(-0.954903,0.29691795,0.29691795,0.954903,0,0)"
         r="0.46772167"
         cy="189.23099"
         cx="-64.710594"
         id="path4710-4-7-9-9"
         style="opacity:1;fill:#c5a058;fill-opacity:1;fill-rule:evenodd;stroke:#000000;stroke-width:0.46499997;stroke-linecap:butt;stroke-linejoin:miter;stroke-miterlimit:4;stroke-dasharray:none;stroke-opacity:1;paint-order:markers stroke fill" />
      <circle
         transform="matrix(-0.954903,0.29691795,0.29691795,0.954903,0,0)"
         r="0.46772167"
         cy="191.33574"
         cx="-64.409904"
         id="path4710-4-8-4-5-9"
         style="opacity:1;fill:#c5a058;fill-opacity:1;fill-rule:evenodd;stroke:#000000;stroke-width:0.46499997;stroke-linecap:butt;stroke-linejoin:miter;stroke-miterlimit:4;stroke-dasharray:none;stroke-opacity:1;paint-order:markers stroke fill" />
      <path
         sodipodi:nodetypes="ccscc"
         inkscape:connector-curvature="0"
         id="path4535-9-8-8"
         d="m 126.27965,139.4998 c -6.99463,1.1173 -14.01519,2.05658 -21.06434,2.79988 0.97276,-1.30055 2.59311,-2.55938 3.36059,-3.96975 1.951,-3.58522 6.44677,-4.23937 9.03714,-2.6988 3.14421,1.01619 6.0725,2.26355 8.66661,3.86867 z"
         style="fill:#904b36;fill-opacity:1;stroke:#000000;stroke-width:0.26458332px;stroke-linecap:butt;stroke-linejoin:miter;stroke-opacity:1" />
      <g
         transform="matrix(-0.48938882,0.8720657,0.8720657,0.48938882,-16.986037,26.284065)"
         id="g5477-6-1">
        <path
           style="fill:#8e7654;fill-opacity:1;stroke:#000000;stroke-width:0.26458332px;stroke-linecap:butt;stroke-linejoin:miter;stroke-opacity:1"
           d="m 57.384075,182.16616 c 0.883324,0.78437 1.851775,0.78739 2.878918,0.2517 -0.380649,-1.68823 0.11921,-2.79594 1.299052,-3.45535 -0.352419,-0.98565 -1.10635,-1.94315 -1.834514,-2.56312 -1.478094,1.69767 -2.431145,3.79674 -2.343456,5.76677 z"
           id="path4624-2-6-0"
           inkscape:connector-curvature="0"
           sodipodi:nodetypes="ccccc" />
        <path
           inkscape:connector-curvature="0"
           style="fill:#636565;fill-opacity:1;stroke:#000000;stroke-width:0.99999994px;stroke-linecap:butt;stroke-linejoin:miter;stroke-opacity:1"
           d="m 238.79492,659.70117 c -2.51823,4.74376 -7.59615,6.12349 -13.05273,7.00586 l 6.93359,9.6875 c 6.71135,6.52256 15.50936,7.85624 18.08008,-4.66015 0.92219,-0.39183 1.97961,-0.58829 2.11133,-2.11915 l 0.18164,-4.03711 35.28711,0.60352 c 0.93634,-1.66885 1.71387,-3.37853 0.0156,-5.74414 z m 3.98438,13.50391 a 4.2931483,3.2829957 0.77747831 0 1 4.24804,3.33984 4.2931483,3.2829957 0.77747831 0 1 -4.33789,3.22461 4.2931483,3.2829957 0.77747831 0 1 -4.24804,-3.33984 4.2931483,3.2829957 0.77747831 0 1 4.33789,-3.22461 z"
           id="path4626-7-8-9"
           transform="scale(0.26458333)" />
        <path
           style="fill:#858787;fill-opacity:1;stroke:#000000;stroke-width:0.26458332px;stroke-linecap:butt;stroke-linejoin:miter;stroke-opacity:1"
           d="m 61.140534,175.97171 c -0.844975,-0.4227 -0.336012,-0.35697 0.207686,-0.53177 -0.860091,-1.95181 0.119389,-0.78715 1.120447,-0.085 l -1.24462,0.61794"
           id="path4630-4-8-7"
           inkscape:connector-curvature="0"
           sodipodi:nodetypes="cccc" />
        <path
           style="fill:#858787;fill-opacity:1;stroke:#000000;stroke-width:0.26458332px;stroke-linecap:butt;stroke-linejoin:miter;stroke-opacity:1"
           d="m 66.391576,174.7518 c 0,0 0.0015,2.50435 -0.04578,2.5037 -0.04725,-6.4e-4 -2.420707,-0.0683 -2.420707,-0.0683 -0.84738,-0.66316 -1.814815,-1.29837 0.0707,-2.59787 z"
           id="path4632-1-2-8"
           inkscape:connector-curvature="0"
           sodipodi:nodetypes="csccc" />
        <path
           style="fill:none;stroke:#000000;stroke-width:0.26458332px;stroke-linecap:butt;stroke-linejoin:miter;stroke-opacity:1"
           d="m 64.384723,174.65369 -0.1283,2.49077"
           id="path4634-1-9-4"
           inkscape:connector-curvature="0" />
        <path
           style="fill:none;stroke:#000000;stroke-width:0.26458332px;stroke-linecap:butt;stroke-linejoin:miter;stroke-opacity:1"
           d="m 64.336901,176.43678 2.066226,0.0753"
           id="path4636-8-4-8"
           inkscape:connector-curvature="0" />
        <path
           style="fill:none;stroke:#000000;stroke-width:0.26458332px;stroke-linecap:butt;stroke-linejoin:miter;stroke-opacity:1"
           d="m 64.305366,175.2787 2.042764,0.0632"
           id="path4638-0-2-4"
           inkscape:connector-curvature="0" />
        <path
           style="fill:#636565;fill-opacity:1;stroke:#000000;stroke-width:0.26458332px;stroke-linecap:butt;stroke-linejoin:miter;stroke-opacity:1"
           d="m 74.325165,174.65864 c 0.494637,-0.84661 0.884425,-0.69091 1.216498,0.0165"
           id="path4642-0-4-5"
           inkscape:connector-curvature="0"
           sodipodi:nodetypes="cc" />
        <path
           style="fill:none;stroke:#000000;stroke-width:0.26458332px;stroke-linecap:butt;stroke-linejoin:miter;stroke-opacity:1"
           d="M 74.325165,174.65864 Z"
           id="path4644-8-0-1"
           inkscape:connector-curvature="0" />
        <path
           style="fill:none;stroke:#000000;stroke-width:0.26458332px;stroke-linecap:butt;stroke-linejoin:miter;stroke-opacity:1"
           d="m 67.447012,175.35564 7.933832,0.10767"
           id="path4646-4-5-3"
           inkscape:connector-curvature="0" />
        <path
           style="fill:none;stroke:#000000;stroke-width:0.26458332px;stroke-linecap:butt;stroke-linejoin:miter;stroke-opacity:1"
           d="m 61.781741,176.73217 c 0.419449,0.28132 0.559679,0.65811 0.670764,1.04487"
           id="path4648-3-6-9"
           inkscape:connector-curvature="0"
           sodipodi:nodetypes="cc" />
        <path
           style="fill:none;stroke:#000000;stroke-width:0.26458332px;stroke-linecap:butt;stroke-linejoin:miter;stroke-opacity:1"
           d="m 61.030343,176.70527 c 0.630453,0.42934 0.932563,1.05325 1.162779,1.71978"
           id="path4650-5-5-2"
           inkscape:connector-curvature="0"
           sodipodi:nodetypes="cc" />
        <path
           style="fill:#858787;fill-opacity:1;stroke:#000000;stroke-width:0.065;stroke-linecap:butt;stroke-linejoin:miter;stroke-miterlimit:4;stroke-dasharray:none;stroke-opacity:1"
           d="m 63.486445,178.22812 c 0.978658,2.33474 0.293689,-0.33408 1.07136,-0.16088 z"
           id="path4654-3-3-3"
           inkscape:connector-curvature="0"
           sodipodi:nodetypes="ccc" />
        <path
           style="fill:#000000;fill-opacity:1;stroke:#000000;stroke-width:0.26458332px;stroke-linecap:butt;stroke-linejoin:miter;stroke-opacity:1"
           d="m 58.321712,181.79722 c -0.387833,-0.41079 0.52555,-2.75585 0.704379,-2.66338 l -0.181987,1.10011 0.996117,-0.77166 c -0.627276,0.72795 -1.3167,1.43006 -1.518509,2.33493 z"
           id="path4656-0-9-7"
           inkscape:connector-curvature="0"
           sodipodi:nodetypes="ccccc" />
        <path
           style="fill:#8e7654;fill-opacity:1;stroke:#000000;stroke-width:0;stroke-linecap:butt;stroke-linejoin:miter;stroke-miterlimit:4;stroke-dasharray:none;stroke-opacity:1"
           d="m 69.891459,176.19069 -0.05145,0.8051 -1.022743,0.0688 -0.03522,-0.88644 z"
           id="path4660-9-8-4"
           inkscape:connector-curvature="0" />
        <path
           style="fill:#636565;fill-opacity:1;stroke:#000000;stroke-width:0.26458332px;stroke-linecap:butt;stroke-linejoin:miter;stroke-opacity:1"
           d="m 66.890761,176.95186 c 1.353567,-0.22841 3.359915,0.80561 3.0007,-0.76117 l -2.939023,-0.09 z"
           id="path4658-9-2-6"
           inkscape:connector-curvature="0"
           sodipodi:nodetypes="cccc" />
        <path
           style="fill:none;stroke:#000000;stroke-width:0.26458332px;stroke-linecap:butt;stroke-linejoin:miter;stroke-opacity:1"
           d="m 68.782039,176.17816 c -9.62e-4,0.0709 0.03522,0.88644 0.03522,0.88644"
           id="path4640-6-1-0"
           inkscape:connector-curvature="0" />
      </g>
      <path
         inkscape:connector-curvature="0"
         id="path1468-5"
         d="m 112.45545,144.58266 2.10711,1.89638"
         style="fill:none;stroke:#000000;stroke-width:0.56500006;stroke-linecap:butt;stroke-linejoin:miter;stroke-miterlimit:4;stroke-dasharray:none;stroke-opacity:1" />
      <path
         inkscape:connector-curvature="0"
         id="path1468-4-7"
         d="m 114.46381,144.61077 -1.89638,2.10711"
         style="fill:none;stroke:#000000;stroke-width:0.56500006;stroke-linecap:butt;stroke-linejoin:miter;stroke-miterlimit:4;stroke-dasharray:none;stroke-opacity:1" />
      <path
         sodipodi:nodetypes="ccsscscccc"
         inkscape:connector-curvature="0"
         id="path4557-4-5-3"
         d="m 123.55715,168.9155 c -1.37189,0.076 -2.75345,0.0671 -4.12349,0.1532 -0.031,0.11415 0.004,0.0375 -0.859,-0.21323 -0.30488,-0.0885 -0.17529,-0.63513 -0.17529,-0.63513 0.13778,-0.58677 1.17316,-0.40081 1.14322,-0.43768 -0.84737,-0.37269 -1.6361,-0.0711 -1.72776,-0.361 -0.21933,-0.69527 0.6013,-0.37598 1.00266,-0.93006 l -1.04649,-0.0798 c 0.0339,-0.61224 -0.0795,-0.59389 0.74173,-0.73322 1.17037,-0.37732 1.79442,0.0548 3.83707,0.12042"
         style="fill:#e9baa9;fill-opacity:1;stroke:#000000;stroke-width:0.26458332px;stroke-linecap:butt;stroke-linejoin:miter;stroke-opacity:1" />
      <g
         style="fill:#c7cbc5;fill-opacity:1"
         transform="matrix(-0.5571838,-0.8303892,-0.8303892,0.5571838,287.94652,98.439343)"
         id="g5401-2-9">
        <path
           style="fill:#c7cbc5;fill-opacity:1;stroke:#000000;stroke-width:0.26458332px;stroke-linecap:butt;stroke-linejoin:miter;stroke-opacity:1"
           d="m 38.80092,161.50473 c 3.400618,-0.0351 4.607438,1.95894 4.82374,3.11748 0.481372,2.57829 -5.176631,5.43886 -9.244301,7.05886 0.495642,3.06716 1.827292,1.29041 3.498335,4.1944 l -3.949111,1.90062 c -2.907721,-3.93792 -6.221488,-3.79398 -5.737722,-9.10136 3.140835,-3.03505 5.411425,-5.61651 10.609059,-7.17 z"
           id="path4553-2-5-7"
           inkscape:connector-curvature="0"
           sodipodi:nodetypes="csccccc" />
        <path
           style="fill:#c7cbc5;fill-opacity:1;stroke:#000000;stroke-width:0.26458332px;stroke-linecap:butt;stroke-linejoin:miter;stroke-opacity:1"
           d="m 34.380359,171.68107 -1.361514,0.17891"
           id="path4704-0-5-8"
           inkscape:connector-curvature="0" />
      </g>
    </g>
  </g>
</svg>
