<?xml version="1.0" encoding="UTF-8" standalone="no"?>
<!-- Created with Inkscape (http://www.inkscape.org/) -->

<svg
   xmlns:dc="http://purl.org/dc/elements/1.1/"
   xmlns:cc="http://creativecommons.org/ns#"
   xmlns:rdf="http://www.w3.org/1999/02/22-rdf-syntax-ns#"
   xmlns:svg="http://www.w3.org/2000/svg"
   xmlns="http://www.w3.org/2000/svg"
   xmlns:sodipodi="http://sodipodi.sourceforge.net/DTD/sodipodi-0.dtd"
   xmlns:inkscape="http://www.inkscape.org/namespaces/inkscape"
   width="34.502216mm"
   height="92.807793mm"
   viewBox="0 0 34.502216 92.807793"
   version="1.1"
   id="svg2558"
   inkscape:version="0.92.2 (5c3e80d, 2017-08-06)"
   sodipodi:docname="p2_stand.svg">
  <defs
     id="defs2552" />
  <sodipodi:namedview
     id="base"
     pagecolor="#ffffff"
     bordercolor="#666666"
     borderopacity="1.0"
     inkscape:pageopacity="0.0"
     inkscape:pageshadow="2"
     inkscape:zoom="0.49497475"
     inkscape:cx="-180.29303"
     inkscape:cy="26.580896"
     inkscape:document-units="mm"
     inkscape:current-layer="layer1"
     showgrid="false"
     fit-margin-top="0"
     fit-margin-left="0"
     fit-margin-right="0"
     fit-margin-bottom="0"
     inkscape:window-width="1920"
     inkscape:window-height="1017"
     inkscape:window-x="-8"
     inkscape:window-y="-8"
     inkscape:window-maximized="1" />
  <metadata
     id="metadata2555">
    <rdf:RDF>
      <cc:Work
         rdf:about="">
        <dc:format>image/svg+xml</dc:format>
        <dc:type
           rdf:resource="http://purl.org/dc/dcmitype/StillImage" />
        <dc:title></dc:title>
      </cc:Work>
    </rdf:RDF>
  </metadata>
  <g
     inkscape:label="Capa 1"
     inkscape:groupmode="layer"
     id="layer1"
     transform="translate(-47.7608,-65.38777)">
    <g
       id="g1224"
       transform="translate(-78.943827,49.699577)">
      <g
         id="g5397">
        <path
           style="fill:#af4b36;fill-opacity:1;stroke:#000000;stroke-width:0.26458332px;stroke-linecap:butt;stroke-linejoin:miter;stroke-opacity:1"
           d="m 151.5889,26.025274 c 2.21374,0.923275 4.67888,1.75857 5.51288,-1.175077 -1.10887,-0.0765 -2.69404,0.247306 -4.44366,0.390209 -0.55862,0.04563 -1.30272,-0.08273 -1.83418,-0.04631"
           id="path4537-7"
           inkscape:connector-curvature="0"
           sodipodi:nodetypes="ccsc" />
        <path
           style="fill:#af4b36;fill-opacity:1;stroke:#000000;stroke-width:0.26458332px;stroke-linecap:butt;stroke-linejoin:miter;stroke-opacity:1"
           d="m 130.64316,22.444504 c -0.46892,0.467293 -5.12272,-2.522309 -3.4392,-2.657459 1.83263,-0.06904 3.54917,1.434444 5.2969,1.496641"
           id="path4539-8"
           inkscape:connector-curvature="0"
           sodipodi:nodetypes="ccc" />
        <path
           style="fill:#af4b36;fill-opacity:1;stroke:#000000;stroke-width:0.26458332px;stroke-linecap:butt;stroke-linejoin:miter;stroke-opacity:1"
           d="m 146.80026,21.476205 c 0.40088,-3.98006 1.08132,-7.028021 -3.81412,-4.103816 -1.3346,0.765291 -2.24032,-0.685081 -3.32214,-1.323337 -1.32458,-0.872702 -1.77991,0.959305 -1.98656,1.947812"
           id="path4541-79"
           inkscape:connector-curvature="0"
           sodipodi:nodetypes="cccc" />
        <path
           style="fill:#e9baa9;fill-opacity:1;stroke:#000000;stroke-width:0.26458332px;stroke-linecap:butt;stroke-linejoin:miter;stroke-opacity:1"
           d="m 136.68305,24.456544 c -0.3571,2.016899 -1.26068,3.646901 -3.87021,4.912994 0.65372,0.822071 1.85968,1.290441 2.39998,1.917909 4.21647,4.896776 4.91544,4.473496 11.98674,3.775359 0.86662,-1.892008 1.85414,-3.749478 2.12612,-5.811385 -0.007,-2.070726 -0.98456,-3.279077 -1.74814,-4.677455"
           id="path4543-3"
           inkscape:connector-curvature="0"
           sodipodi:nodetypes="ccsccc" />
        <circle
           style="opacity:1;fill:#000000;fill-opacity:1;fill-rule:evenodd;stroke:#000000;stroke-width:0.2;stroke-linecap:butt;stroke-linejoin:miter;stroke-miterlimit:4;stroke-dasharray:none;stroke-opacity:1;paint-order:markers stroke fill"
           id="path4545-2"
           cx="-139.38974"
           cy="27.865129"
           r="0.71828681"
           transform="scale(-1,1)" />
        <path
           style="fill:none;stroke:#000000;stroke-width:0.26458332px;stroke-linecap:butt;stroke-linejoin:miter;stroke-opacity:1"
           d="m 138.78837,27.39741 c 0.74852,-0.347874 1.38771,-0.744337 1.73725,-1.269531"
           id="path4547-1"
           inkscape:connector-curvature="0"
           sodipodi:nodetypes="cc" />
        <path
           style="fill:#c7cbc5;fill-opacity:1;stroke:#000000;stroke-width:0.26458332px;stroke-linecap:butt;stroke-linejoin:miter;stroke-opacity:1"
           d="m 137.88854,39.581814 c -3.79127,1.768764 -2.86321,4.010022 -1.56922,5.557464"
           id="path4555-51"
           inkscape:connector-curvature="0"
           sodipodi:nodetypes="cc" />
        <path
           style="fill:#7c6b57;fill-opacity:1;stroke:#000000;stroke-width:0.26458332px;stroke-linecap:butt;stroke-linejoin:miter;stroke-opacity:1"
           d="m 139.54006,68.272943 c -0.049,0.64733 -1.66692,2.91792 -2.44758,3.89035 -2.911,3.62608 -7.27014,11.64297 -7.76959,14.74352 1.92819,4.10337 9.64857,13.685467 12.55578,16.445247 l 3.67496,0.0668 -9.2208,-16.637507 8.15172,-15.63526 z"
           id="path4561-2"
           inkscape:connector-curvature="0"
           sodipodi:nodetypes="csccc" />
        <path
           sodipodi:type="star"
           style="opacity:1;fill:#c7c5ca;fill-opacity:1;fill-rule:evenodd;stroke:#000000;stroke-width:0.69999999;stroke-linecap:butt;stroke-linejoin:miter;stroke-miterlimit:4;stroke-dasharray:none;stroke-opacity:1;paint-order:markers stroke fill"
           id="path4565-4"
           sodipodi:sides="5"
           sodipodi:cx="35.446621"
           sodipodi:cy="104.8332"
           sodipodi:r1="1.7375731"
           sodipodi:r2="0.50389618"
           sodipodi:arg1="0.019228399"
           sodipodi:arg2="0.64754693"
           inkscape:flatsided="false"
           inkscape:rounded="0.01"
           inkscape:randomized="0"
           d="m 37.183873,104.86661 c -2.62e-4,0.0136 -1.327143,0.25969 -1.335362,0.27055 -0.0082,0.0109 0.116213,1.35463 0.103177,1.35859 -0.01304,0.004 -0.65709,-1.18194 -0.669965,-1.1864 -0.01288,-0.004 -1.25241,0.52913 -1.260206,0.51795 -0.0078,-0.0112 0.921039,-0.99017 0.921301,-1.00379 2.62e-4,-0.0136 -0.890245,-1.0276 -0.882026,-1.03847 0.0082,-0.0109 1.226323,0.56998 1.23936,0.56602 0.01304,-0.004 0.702208,-1.16422 0.715083,-1.15976 0.01288,0.004 -0.163129,1.34243 -0.155334,1.35361 0.0078,0.0112 1.324234,0.30807 1.323972,0.3217 z"
           inkscape:transform-center-x="0.1974969"
           inkscape:transform-center-y="0.1894927"
           transform="matrix(-0.92315099,0.38443758,0.38443758,0.92315099,147.33846,-5.345969)" />
        <path
           style="fill:#7a501d;fill-opacity:1;stroke:#000000;stroke-width:0.26458332px;stroke-linecap:butt;stroke-linejoin:miter;stroke-opacity:1"
           d="m 141.87867,103.35206 c -1.87813,0.18298 -4.12301,-0.10557 -6.29705,-0.30304 0.0408,0.57268 0.54395,0.92365 0.7352,1.17574 l 6.74786,-0.17111 1.5535,-0.63481 z"
           id="path4567-75"
           inkscape:connector-curvature="0"
           sodipodi:nodetypes="ccc" />
        <path
           style="fill:#c7cbc5;fill-opacity:1;stroke:#000000;stroke-width:0.26458332px;stroke-linecap:butt;stroke-linejoin:miter;stroke-opacity:1"
           d="m 138.36437,38.181108 c -2.91179,8.782908 -2.86298,10.122285 -0.63069,15.360614 1.58506,3.719518 0.18511,10.593811 0.63068,13.139871 4.15766,7.68831 11.14336,5.72614 11.77788,0.46748 0.3577,-2.96451 1.03905,-6.119981 1.26575,-7.759609 0.74358,-6.033389 -2.52606,-13.606638 -2.87786,-22.914664"
           id="path4551-3"
           inkscape:connector-curvature="0"
           sodipodi:nodetypes="cscscc" />
        <path
           style="fill:#3e3428;fill-opacity:1;stroke:#000000;stroke-width:0.26458332px;stroke-linecap:butt;stroke-linejoin:miter;stroke-opacity:1"
           d="m 142.77505,38.169646 c 0.095,8.072005 -0.33726,16.10008 -1.75101,24.046361 3.37366,-0.0312 6.65268,0.268841 9.6718,1.478495 1.52836,-6.310289 0.11961,-12.186476 -1.03646,-18.181566 -0.57084,-2.960217 -0.68707,-6.056607 -1.12925,-9.038135 -1.25954,1.009267 -3.57611,1.305659 -5.75508,1.694845 z"
           id="path4586-2"
           inkscape:connector-curvature="0"
           sodipodi:nodetypes="cccscc" />
        <path
           style="fill:#3e3428;fill-opacity:1;stroke:#000000;stroke-width:0.26458332px;stroke-linecap:butt;stroke-linejoin:miter;stroke-opacity:1"
           d="m 136.75797,51.0323 c 0.34653,3.630155 0.17053,7.173219 -0.23623,10.677827 l 1.88988,0.188989 c 0.26093,-3.679979 0.15801,-5.699035 -0.62443,-8.287896 -0.1741,-0.576027 -0.76683,-2.049568 -1.02922,-2.57892 z"
           id="path4588-8"
           inkscape:connector-curvature="0"
           sodipodi:nodetypes="cccsc" />
        <path
           style="fill:#a73336;fill-opacity:1;stroke:#000000;stroke-width:0.26458332px;stroke-linecap:butt;stroke-linejoin:miter;stroke-opacity:1"
           d="m 146.68173,31.018565 -10.63288,-0.47988 c -2.92074,-0.62979 -2.71432,-0.0695 -0.008,1.633867 -1.60852,0.24997 -0.8262,1.384228 -0.0106,2.221588 -2.54269,1.45913 0.12124,4.112287 3.78609,4.284765 4.56891,0.215027 10.58236,-2.370069 8.71358,-3.687277 0.60718,-0.514161 0.33376,-0.922158 0.0144,-1.324615 0.21912,-0.37009 0.35331,-0.740177 0.012,-1.110267 0.47576,-0.709494 0.2138,-1.297714 0.0206,-1.897233 z"
           id="path4549-9"
           inkscape:connector-curvature="0"
           sodipodi:nodetypes="ccccsccccc" />
        <path
           style="fill:#7a501d;fill-opacity:1;stroke:#000000;stroke-width:0.26458332px;stroke-linecap:butt;stroke-linejoin:miter;stroke-opacity:1"
           d="m 152.83672,103.41888 c 1.39613,0.86104 1.0609,2.71408 0.43432,4.81085 l -0.80181,0.0334 -0.80181,-0.86863 -1.67044,0.86863 -8.58603,0.10023 c -2.46186,-1.11396 -6.08813,-4.26491 -4.90219,-4.52813 0.62247,-0.13816 1.75628,0.0142 4.70174,-0.0823 0.53184,-0.24728 1.06992,0.38773 3.40768,-0.33409"
           id="path4563-3"
           inkscape:connector-curvature="0"
           sodipodi:nodetypes="ccccccscc" />
        <path
           style="fill:#c7a967;fill-opacity:1;stroke:#000000;stroke-width:0.26499999;stroke-linecap:butt;stroke-linejoin:miter;stroke-miterlimit:4;stroke-dasharray:none;stroke-opacity:1"
           d="m 150.60135,64.922925 c -4.09474,-0.58057 -8.18949,-0.4724 -12.28423,-0.377976 -0.55085,0.724493 -0.68696,1.430984 0.0472,2.136644 3.82868,-0.59397 7.77837,-0.95179 11.85902,-0.0105 z"
           id="path4609-7"
           inkscape:connector-curvature="0"
           sodipodi:nodetypes="ccccc" />
        <ellipse
           style="opacity:1;fill:#724852;fill-opacity:1;fill-rule:evenodd;stroke:#000000;stroke-width:0.26500002;stroke-linecap:butt;stroke-linejoin:miter;stroke-miterlimit:4;stroke-dasharray:none;stroke-opacity:1;paint-order:markers stroke fill"
           id="path4611-8"
           cx="-138.37392"
           cy="65.49968"
           rx="0.58796763"
           ry="1.2076652"
           transform="scale(-1,1)" />
        <path
           style="fill:#7c6b57;fill-opacity:1;stroke:#000000;stroke-width:0.065;stroke-linecap:butt;stroke-linejoin:miter;stroke-miterlimit:4;stroke-dasharray:none;stroke-opacity:1"
           d="m 143.25444,71.372143 c 1.24229,-2.05217 3.02041,-3.8295 4.84282,-5.07905 -3.23087,-0.40778 -6.3046,0.0148 -9.55751,0.48873 0.98114,1.76161 1.89257,3.57635 4.71469,4.59032 z"
           id="path4682-0"
           inkscape:connector-curvature="0"
           sodipodi:nodetypes="cccc" />
        <path
           style="fill:#7c6b57;fill-opacity:1;stroke:#000000;stroke-width:0.26458332px;stroke-linecap:butt;stroke-linejoin:miter;stroke-opacity:1"
           d="m 151.2331,75.288773 c 0.22892,-22.974493 -12.82278,4.73303 -17.06713,11.37199 -1.02297,4.27055 8.14142,12.2374 11.38766,16.758117 l 8.21854,0.0668 c 0.21318,-1.27691 -0.0193,-2.53777 -0.26728,-3.47449 -3.94499,-3.504897 -7.42292,-7.521297 -10.64689,-12.106807 3.89559,-4.17712 7.08957,-7.81708 8.3751,-12.61563 z"
           id="path4559-5"
           inkscape:connector-curvature="0"
           sodipodi:nodetypes="cccccccc" />
        <g
           id="g5135"
           transform="translate(-26.458652,-3.6857103)">
          <path
             sodipodi:nodetypes="ccccc"
             inkscape:connector-curvature="0"
             id="path4624-9"
             d="m 180.87421,67.283437 c 0.64427,0.990154 0.50323,1.948284 -0.17926,2.884336 -1.61284,-0.627492 -2.78258,-0.297933 -3.61012,0.77072 -0.92228,-0.495088 -1.757,-1.383036 -2.26178,-2.195304 1.89861,-1.209176 4.11607,-1.839452 6.05116,-1.459752 z"
             style="fill:#8e7654;fill-opacity:1;stroke:#000000;stroke-width:0.26458332px;stroke-linecap:butt;stroke-linejoin:miter;stroke-opacity:1" />
          <path
             sodipodi:nodetypes="ccccccccc"
             inkscape:connector-curvature="0"
             id="path4626-78"
             d="m 174.82305,68.743188 c -0.44558,1.392946 -1.00619,2.6675 -2.34644,3.139709 l -1.75751,12.99461 c 0.55212,0.537416 1.03037,0.401546 1.50386,0.2222 l 1.2302,-9.2564 1.06376,0.111532 c 0.40572,0.02578 0.49851,-0.243472 0.63731,-0.469339 3.37596,-0.180092 3.37306,-2.534401 1.93058,-4.547021 l -2.26178,-2.195304"
             style="fill:#636565;fill-opacity:1;stroke:#000000;stroke-width:0.26458332px;stroke-linecap:butt;stroke-linejoin:miter;stroke-opacity:1" />
          <ellipse
             transform="matrix(-0.1352898,0.99080607,0.99080607,0.1352898,0,0)"
             ry="0.86862594"
             rx="1.1358955"
             cy="185.04254"
             cx="48.99017"
             id="path4628-5"
             style="opacity:1;fill:#7c6b57;fill-opacity:1;fill-rule:evenodd;stroke:#000000;stroke-width:0.26499999;stroke-linecap:butt;stroke-linejoin:miter;stroke-miterlimit:4;stroke-dasharray:none;stroke-opacity:1;paint-order:markers stroke fill" />
          <path
             sodipodi:nodetypes="cccc"
             inkscape:connector-curvature="0"
             id="path4630-9"
             d="m 174.18997,70.076871 c -0.29233,-0.898443 -0.30302,-0.385364 -0.55674,0.126291 -1.80219,-1.140802 -0.79615,9.95e-4 -0.25072,1.09534 l 0.79616,-1.138878"
             style="fill:#858787;fill-opacity:1;stroke:#000000;stroke-width:0.26458332px;stroke-linecap:butt;stroke-linejoin:miter;stroke-opacity:1" />
          <path
             sodipodi:nodetypes="csccc"
             inkscape:connector-curvature="0"
             id="path4632-5"
             d="m 172.20269,75.088091 c 0,0 2.47628,0.373893 2.48267,0.327087 0.006,-0.04682 0.29248,-2.403944 0.29248,-2.403944 -0.52977,-0.936582 -1.01404,-1.987729 -2.57949,-0.316448 z"
             style="fill:#858787;fill-opacity:1;stroke:#000000;stroke-width:0.26458332px;stroke-linecap:butt;stroke-linejoin:miter;stroke-opacity:1" />
          <path
             inkscape:connector-curvature="0"
             id="path4634-9"
             d="m 172.40414,73.088965 2.48214,0.243558"
             style="fill:none;stroke:#000000;stroke-width:0.26458332px;stroke-linecap:butt;stroke-linejoin:miter;stroke-opacity:1" />
          <path
             inkscape:connector-curvature="0"
             id="path4636-2"
             d="m 174.17451,73.306859 -0.23284,2.054445"
             style="fill:none;stroke:#000000;stroke-width:0.26458332px;stroke-linecap:butt;stroke-linejoin:miter;stroke-opacity:1" />
          <path
             inkscape:connector-curvature="0"
             id="path4638-1"
             d="m 173.03399,73.103442 -0.24134,2.02944"
             style="fill:none;stroke:#000000;stroke-width:0.26458332px;stroke-linecap:butt;stroke-linejoin:miter;stroke-opacity:1" />
          <path
             sodipodi:nodetypes="cc"
             inkscape:connector-curvature="0"
             id="path4642-1"
             d="m 170.93067,82.919596 c -0.91076,0.363227 -0.81476,0.771836 -0.16459,1.205425"
             style="fill:#636565;fill-opacity:1;stroke:#000000;stroke-width:0.26458332px;stroke-linecap:butt;stroke-linejoin:miter;stroke-opacity:1" />
          <path
             inkscape:connector-curvature="0"
             id="path4644-7"
             d="M 170.93067,82.919596 Z"
             style="fill:none;stroke:#000000;stroke-width:0.26458332px;stroke-linecap:butt;stroke-linejoin:miter;stroke-opacity:1" />
          <path
             inkscape:connector-curvature="0"
             id="path4646-6"
             d="m 172.64285,76.221593 -1.07347,7.861613"
             style="fill:none;stroke:#000000;stroke-width:0.26458332px;stroke-linecap:butt;stroke-linejoin:miter;stroke-opacity:1" />
          <path
             sodipodi:nodetypes="cc"
             inkscape:connector-curvature="0"
             id="path4648-8"
             d="m 174.84662,70.824045 c 0.21581,0.456624 0.56756,0.65133 0.93349,0.818699"
             style="fill:none;stroke:#000000;stroke-width:0.26458332px;stroke-linecap:butt;stroke-linejoin:miter;stroke-opacity:1" />
          <path
             sodipodi:nodetypes="cc"
             inkscape:connector-curvature="0"
             id="path4650-1"
             d="m 174.93177,70.077003 c 0.3308,0.687293 0.90285,1.078833 1.52772,1.405616"
             style="fill:none;stroke:#000000;stroke-width:0.26458332px;stroke-linecap:butt;stroke-linejoin:miter;stroke-opacity:1" />
          <path
             sodipodi:nodetypes="ccc"
             inkscape:connector-curvature="0"
             id="path4654-30"
             d="m 176.0724,72.732271 c 2.16324,1.315002 -0.37403,0.240739 -0.31842,1.03552 z"
             style="fill:#858787;fill-opacity:1;stroke:#000000;stroke-width:0.065;stroke-linecap:butt;stroke-linejoin:miter;stroke-miterlimit:4;stroke-dasharray:none;stroke-opacity:1" />
          <path
             sodipodi:nodetypes="ccccc"
             inkscape:connector-curvature="0"
             id="path4656-1"
             d="m 180.36992,68.155778 c -0.34854,-0.444615 -2.80336,0.10985 -2.73852,0.300442 l 1.11495,-0.01635 -0.91122,0.870276 c 0.81314,-0.512037 1.60997,-1.089377 2.53479,-1.154367 z"
             style="fill:#000000;fill-opacity:1;stroke:#000000;stroke-width:0.26458332px;stroke-linecap:butt;stroke-linejoin:miter;stroke-opacity:1" />
          <path
             inkscape:connector-curvature="0"
             id="path4660-6"
             d="m 173.10507,78.763046 0.80379,0.06886 0.22015,-1.001135 -0.87134,-0.166667 z"
             style="fill:#8e7654;fill-opacity:1;stroke:#000000;stroke-width:0;stroke-linecap:butt;stroke-linejoin:miter;stroke-miterlimit:4;stroke-dasharray:none;stroke-opacity:1" />
          <path
             sodipodi:nodetypes="cccc"
             inkscape:connector-curvature="0"
             id="path4658-4"
             d="m 174.30404,75.908921 c -0.42717,1.304545 0.29696,3.442361 -1.19897,2.854127 l 0.34808,-2.919726 z"
             style="fill:#636565;fill-opacity:1;stroke:#000000;stroke-width:0.26458332px;stroke-linecap:butt;stroke-linejoin:miter;stroke-opacity:1" />
          <path
             inkscape:connector-curvature="0"
             id="path4640-3"
             d="m 173.25767,77.6641 c 0.0702,0.0096 0.87134,0.166666 0.87134,0.166666"
             style="fill:none;stroke:#000000;stroke-width:0.26458332px;stroke-linecap:butt;stroke-linejoin:miter;stroke-opacity:1" />
        </g>
        <path
           style="fill:#e9baa9;fill-opacity:1;stroke:#000000;stroke-width:0.26458332px;stroke-linecap:butt;stroke-linejoin:miter;stroke-opacity:1"
           d="m 156.09929,62.588517 -1.29184,5.244076 c -0.56709,0.21996 -0.39364,-1.89314 -0.56808,-1.5607 -0.38536,0.73439 -0.86054,2.2676 -1.1035,2.31931 -0.58953,0.12547 0.38435,-2.77857 0.33764,-2.77017 -0.736,0.56149 -1.94061,3.49376 -2.23886,3.43371 -0.7147,-0.1439 0.74153,-3.07038 0.45115,-3.689658 l -1.68465,2.232268 c -0.5195,-0.32573 0.55039,-1.57246 0.82561,-2.358692 -0.46167,-0.170547 -1.36232,0.0158 -1.54828,-0.413321 2.03734,-0.996847 2.34823,-2.56993 3.45441,-4.088466"
           id="path4557-1"
           inkscape:connector-curvature="0"
           sodipodi:nodetypes="ccsscsccccc" />
        <path
           style="fill:#c7cbc5;fill-opacity:1;stroke:#000000;stroke-width:0.26458332px;stroke-linecap:butt;stroke-linejoin:miter;stroke-opacity:1"
           d="m 150.39552,39.542915 c -3.40062,-0.03506 -4.60744,1.958938 -4.82374,3.117479 -0.48137,2.578288 5.17663,5.43886 9.2443,7.058856 -0.49564,3.067163 -1.22882,8.775647 -2.89987,11.679634 l 4.56226,2.23792 c 2.90772,-3.937921 5.00987,-11.616507 4.52611,-16.923888 -3.14084,-3.035048 -5.41143,-5.616509 -10.60906,-7.170001 z"
           id="path4553-4"
           inkscape:connector-curvature="0"
           sodipodi:nodetypes="csccccc" />
        <text
           xml:space="preserve"
           style="font-style:normal;font-weight:normal;font-size:3.58537388px;line-height:1.25;font-family:sans-serif;letter-spacing:0px;word-spacing:0px;fill:#000000;fill-opacity:1;stroke:none;stroke-width:0.26458332"
           x="-146.47826"
           y="105.41362"
           id="text4686-8"
           transform="scale(-1,1)"><tspan
             sodipodi:role="line"
             id="tspan4684-5"
             x="-146.47826"
             y="105.41362"
             style="stroke-width:0.26458332">xxx</tspan></text>
        <path
           style="fill:#de8200;fill-opacity:1;stroke:#000000;stroke-width:0.26458332px;stroke-linecap:butt;stroke-linejoin:miter;stroke-opacity:1"
           d="m 149.72972,24.607784 c 0.0334,0.50113 2.37201,8.218537 2.37201,8.218537 l -3.64155,-4.877669 -0.0668,4.309722 -1.63703,-5.980156 -0.73499,5.846521 -1.73725,-7.14946 -1.00226,5.345391 -1.1359,-5.278573 -0.7684,3.340869 -1.20271,-3.474504 -1.38646,2.488948 -1.25283,-2.355313 -1.1359,2.505652 -1.00225,-2.338609 -3.50791,0.968852 4.45928,-2.951836 z"
           id="path4702-6"
           inkscape:connector-curvature="0"
           sodipodi:nodetypes="cccccccccccccccccc" />
        <path
           style="fill:none;stroke:#000000;stroke-width:0.26458332px;stroke-linecap:butt;stroke-linejoin:miter;stroke-opacity:1"
           d="m 154.81608,49.71925 1.36151,0.178914"
           id="path4704-5"
           inkscape:connector-curvature="0" />
        <path
           style="fill:none;stroke:#000000;stroke-width:0.26458332px;stroke-linecap:butt;stroke-linejoin:miter;stroke-opacity:1"
           d="m 142.858,87.904373 -0.65041,0.81484"
           id="path4706-2"
           inkscape:connector-curvature="0"
           sodipodi:nodetypes="cc" />
        <circle
           style="opacity:1;fill:#c5a058;fill-opacity:1;fill-rule:evenodd;stroke:#000000;stroke-width:0.46499997;stroke-linecap:butt;stroke-linejoin:miter;stroke-miterlimit:4;stroke-dasharray:none;stroke-opacity:1;paint-order:markers stroke fill"
           id="path4710-7"
           cx="-137.76941"
           cy="42.748703"
           r="0.46772167"
           transform="scale(-1,1)" />
        <circle
           style="opacity:1;fill:#c5a058;fill-opacity:1;fill-rule:evenodd;stroke:#000000;stroke-width:0.46499997;stroke-linecap:butt;stroke-linejoin:miter;stroke-miterlimit:4;stroke-dasharray:none;stroke-opacity:1;paint-order:markers stroke fill"
           id="path4710-4-7"
           cx="-137.13466"
           cy="44.552773"
           r="0.46772167"
           transform="scale(-1,1)" />
        <circle
           style="opacity:1;fill:#c5a058;fill-opacity:1;fill-rule:evenodd;stroke:#000000;stroke-width:0.46499997;stroke-linecap:butt;stroke-linejoin:miter;stroke-miterlimit:4;stroke-dasharray:none;stroke-opacity:1;paint-order:markers stroke fill"
           id="path4710-4-8-4"
           cx="-136.83397"
           cy="46.657516"
           r="0.46772167"
           transform="scale(-1,1)" />
        <path
           style="fill:#904b36;fill-opacity:1;stroke:#000000;stroke-width:0.26458332px;stroke-linecap:butt;stroke-linejoin:miter;stroke-opacity:1"
           d="m 151.5889,26.025274 c -7.01094,-1.009919 -13.99379,-2.197532 -20.94574,-3.58077 1.31505,-0.953069 3.2361,-1.674028 4.38773,-2.792902 2.92753,-2.844258 7.41478,-2.134032 9.43091,0.106189 2.70069,1.903943 5.12656,3.964512 7.1271,6.267483 z"
           id="path4535-9"
           inkscape:connector-curvature="0"
           sodipodi:nodetypes="ccscc" />
      </g>
    </g>
  </g>
</svg>
